<?xml version="1.0" encoding="UTF-8" standalone="no"?>
<!DOCTYPE svg PUBLIC "-//W3C//DTD SVG 1.1//EN"
 "http://www.w3.org/Graphics/SVG/1.1/DTD/svg11.dtd">
<!-- Generated by graphviz version 9.0.0 (20231125.0833)
 -->
<!-- Title: G Pages: 1 -->
<svg width="2632pt" height="527pt"
 viewBox="0.00 0.00 2632.16 526.83" xmlns="http://www.w3.org/2000/svg" xmlns:xlink="http://www.w3.org/1999/xlink">
<g id="graph0" class="graph" transform="scale(1 1) rotate(0) translate(4 522.83)">
<title>G</title>
<polygon fill="white" stroke="none" points="-4,4 -4,-522.83 2628.16,-522.83 2628.16,4 -4,4"/>
<!-- xarray_spatial -->
<g id="node1" class="node">
<title>xarray_spatial</title>
<ellipse fill="#90ee90" stroke="black" cx="1276.23" cy="-389.78" rx="129.05" ry="129.05"/>
<text text-anchor="start" x="1195.61" y="-391.78" font-family="Helvetica,sans-Serif" font-weight="bold" font-size="20.00">Xarray&#45;Spatial</text>
<text text-anchor="start" x="1192.98" y="-371.78" font-family="Helvetica,sans-Serif" font-size="20.00">(Raster Analysis)</text>
</g>
<!-- numpy -->
<g id="node2" class="node">
<title>numpy</title>
<ellipse fill="palegreen" stroke="black" cx="395.23" cy="-25.46" rx="57.98" ry="25.46"/>
<text text-anchor="start" x="367.48" y="-27.16" font-family="Helvetica,sans-Serif" font-weight="bold" font-size="14.00">NumPy</text>
<text text-anchor="start" x="362.23" y="-13.16" font-family="Helvetica,sans-Serif" font-size="14.00">(Ndarray)</text>
</g>
<!-- xarray_spatial&#45;&gt;numpy -->
<g id="edge1" class="edge">
<title>xarray_spatial&#45;&gt;numpy</title>
<path fill="none" stroke="black" d="M1147.17,-379.73C921.1,-361.7 465.24,-315.05 336.23,-224.74 282.85,-187.37 253.17,-143.06 286.23,-86.91 297.5,-67.79 317.23,-54.28 336.84,-44.96"/>
<polygon fill="black" stroke="black" points="338.22,-48.18 345.97,-40.95 335.4,-41.77 338.22,-48.18"/>
</g>
<!-- xarray -->
<g id="node3" class="node">
<title>xarray</title>
<ellipse fill="palegreen" stroke="black" cx="395.23" cy="-112.37" rx="99.88" ry="25.46"/>
<text text-anchor="start" x="369.36" y="-114.07" font-family="Helvetica,sans-Serif" font-weight="bold" font-size="14.00">Xarray</text>
<text text-anchor="start" x="332.61" y="-100.07" font-family="Helvetica,sans-Serif" font-size="14.00">(Labeled&#45;Ndarray)</text>
</g>
<!-- xarray_spatial&#45;&gt;xarray -->
<g id="edge2" class="edge">
<title>xarray_spatial&#45;&gt;xarray</title>
<path fill="none" stroke="black" d="M1147.01,-385.6C916.41,-376.89 448.71,-344.53 348.23,-224.74 328.98,-201.78 345.82,-169.79 364.48,-145.99"/>
<polygon fill="black" stroke="black" points="367.02,-148.41 370.69,-138.47 361.62,-143.95 367.02,-148.41"/>
</g>
<!-- numba -->
<g id="node4" class="node">
<title>numba</title>
<ellipse fill="palegreen" stroke="black" cx="129.23" cy="-112.37" rx="78.14" ry="25.46"/>
<text text-anchor="start" x="101.48" y="-114.07" font-family="Helvetica,sans-Serif" font-weight="bold" font-size="14.00">Numba</text>
<text text-anchor="start" x="81.98" y="-100.07" font-family="Helvetica,sans-Serif" font-size="14.00">(JIT Compiler)</text>
</g>
<!-- xarray_spatial&#45;&gt;numba -->
<g id="edge3" class="edge">
<title>xarray_spatial&#45;&gt;numba</title>
<path fill="none" stroke="black" d="M1147.16,-381.57C839.82,-363.07 84.62,-309.38 10.23,-224.74 -4.7,-207.74 -1.6,-193.11 10.23,-173.82 21.38,-155.66 39.88,-142.74 59,-133.65"/>
<polygon fill="black" stroke="black" points="60.2,-136.94 67.95,-129.72 57.39,-130.53 60.2,-136.94"/>
</g>
<!-- scipy -->
<g id="node5" class="node">
<title>scipy</title>
<ellipse fill="palegreen" stroke="black" cx="633.23" cy="-112.37" rx="120.56" ry="25.46"/>
<text text-anchor="start" x="612.23" y="-114.07" font-family="Helvetica,sans-Serif" font-weight="bold" font-size="14.00">SciPy</text>
<text text-anchor="start" x="555.98" y="-100.07" font-family="Helvetica,sans-Serif" font-size="14.00">(Scientific Computing)</text>
</g>
<!-- xarray_spatial&#45;&gt;scipy -->
<g id="edge4" class="edge">
<title>xarray_spatial&#45;&gt;scipy</title>
<path fill="none" stroke="black" d="M1147.15,-385.21C919.37,-375.89 460.82,-342.6 362.23,-224.74 347.71,-207.38 348.08,-191.48 362.23,-173.82 367.87,-166.79 459.51,-147.32 534.69,-132.36"/>
<polygon fill="black" stroke="black" points="535.04,-135.86 544.16,-130.48 533.67,-128.99 535.04,-135.86"/>
</g>
<!-- matplotlib -->
<g id="node6" class="node">
<title>matplotlib</title>
<ellipse fill="palegreen" stroke="black" cx="1440.23" cy="-112.37" rx="68.06" ry="25.46"/>
<text text-anchor="start" x="1400.11" y="-114.07" font-family="Helvetica,sans-Serif" font-weight="bold" font-size="14.00">Matplotlib</text>
<text text-anchor="start" x="1408.73" y="-100.07" font-family="Helvetica,sans-Serif" font-size="14.00">(Plotting)</text>
</g>
<!-- xarray_spatial&#45;&gt;matplotlib -->
<g id="edge5" class="edge">
<title>xarray_spatial&#45;&gt;matplotlib</title>
<path fill="none" stroke="black" d="M1401.77,-358.52C1471.49,-334.61 1552.37,-293.43 1594.23,-224.74 1606.01,-205.41 1606.98,-192.52 1594.23,-173.82 1576.29,-147.51 1545,-132.65 1515.29,-124.25"/>
<polygon fill="black" stroke="black" points="1516.47,-120.94 1505.91,-121.83 1514.71,-127.72 1516.47,-120.94"/>
</g>
<!-- zstandard -->
<g id="node7" class="node">
<title>zstandard</title>
<ellipse fill="palegreen" stroke="black" cx="487.23" cy="-199.28" rx="115.79" ry="25.46"/>
<text text-anchor="start" x="446.73" y="-200.98" font-family="Helvetica,sans-Serif" font-weight="bold" font-size="14.00">Zstandard</text>
<text text-anchor="start" x="413.36" y="-186.98" font-family="Helvetica,sans-Serif" font-size="14.00">(Compression Codec)</text>
</g>
<!-- xarray_spatial&#45;&gt;zstandard -->
<g id="edge6" class="edge">
<title>xarray_spatial&#45;&gt;zstandard</title>
<path fill="none" stroke="black" d="M1150.78,-358.81C990.02,-320.4 715.41,-254.79 575.22,-221.3"/>
<polygon fill="black" stroke="black" points="576.14,-217.92 565.6,-219 574.51,-224.73 576.14,-217.92"/>
</g>
<!-- cupy -->
<g id="node8" class="node">
<title>cupy</title>
<g id="a_node8"><a xlink:href="https://github.com/cupy/cupy" xlink:title="&lt;b&gt;CuPy&lt;/b&gt;&lt;br /&gt;(GPU&#45;Ndarray)">
<ellipse fill="lemonchiffon" stroke="black" cx="1157.23" cy="-112.37" rx="82.38" ry="25.46"/>
<text text-anchor="start" x="1137.36" y="-114.07" font-family="Helvetica,sans-Serif" font-weight="bold" font-size="14.00">CuPy</text>
<text text-anchor="start" x="1106.98" y="-100.07" font-family="Helvetica,sans-Serif" font-size="14.00">(GPU&#45;Ndarray)</text>
</a>
</g>
</g>
<!-- xarray_spatial&#45;&gt;cupy -->
<g id="edge11" class="edge">
<title>xarray_spatial&#45;&gt;cupy</title>
<path fill="none" stroke="black" stroke-dasharray="5,2" d="M1203.73,-282.76C1193.24,-264.03 1183.54,-244.26 1176.23,-224.74 1167.14,-200.44 1162.37,-171.53 1159.89,-149.26"/>
<polygon fill="black" stroke="black" points="1163.38,-149.06 1158.91,-139.46 1156.42,-149.76 1163.38,-149.06"/>
</g>
<!-- cuspatial -->
<g id="node9" class="node">
<title>cuspatial</title>
<g id="a_node9"><a xlink:href="https://github.com/rapidsai/cuspatial" xlink:title="&lt;b&gt;cuSpatial&lt;/b&gt;&lt;br /&gt;(GPU Geometry)">
<ellipse fill="lemonchiffon" stroke="black" cx="1276.23" cy="-199.28" rx="90.86" ry="25.46"/>
<text text-anchor="start" x="1239.86" y="-200.98" font-family="Helvetica,sans-Serif" font-weight="bold" font-size="14.00">cuSpatial</text>
<text text-anchor="start" x="1219.98" y="-186.98" font-family="Helvetica,sans-Serif" font-size="14.00">(GPU Geometry)</text>
</a>
</g>
</g>
<!-- xarray_spatial&#45;&gt;cuspatial -->
<g id="edge12" class="edge">
<title>xarray_spatial&#45;&gt;cuspatial</title>
<path fill="none" stroke="black" stroke-dasharray="5,2" d="M1276.23,-260.44C1276.23,-251.82 1276.23,-243.63 1276.23,-236.24"/>
<polygon fill="black" stroke="black" points="1279.73,-236.48 1276.23,-226.48 1272.73,-236.48 1279.73,-236.48"/>
</g>
<!-- rtxpy -->
<g id="node10" class="node">
<title>rtxpy</title>
<g id="a_node10"><a xlink:href="https://github.com/makepath/rtxpy" xlink:title="&lt;b&gt;rtxpy&lt;/b&gt;&lt;br /&gt;(GPU Ray Tracing)">
<ellipse fill="lemonchiffon" stroke="black" cx="1485.23" cy="-199.28" rx="99.88" ry="25.46"/>
<text text-anchor="start" x="1464.61" y="-200.98" font-family="Helvetica,sans-Serif" font-weight="bold" font-size="14.00">rtxpy</text>
<text text-anchor="start" x="1422.61" y="-186.98" font-family="Helvetica,sans-Serif" font-size="14.00">(GPU Ray Tracing)</text>
</a>
</g>
</g>
<!-- xarray_spatial&#45;&gt;rtxpy -->
<g id="edge13" class="edge">
<title>xarray_spatial&#45;&gt;rtxpy</title>
<path fill="none" stroke="black" stroke-dasharray="5,2" d="M1371.86,-302.53C1399.83,-277.31 1428.64,-251.32 1450.23,-231.85"/>
<polygon fill="black" stroke="black" points="1452.51,-234.51 1457.59,-225.21 1447.82,-229.31 1452.51,-234.51"/>
</g>
<!-- kvikio -->
<g id="node11" class="node">
<title>kvikio</title>
<g id="a_node11"><a xlink:href="https://github.com/rapidsai/kvikio" xlink:title="&lt;b&gt;KvikIO&lt;/b&gt;&lt;br /&gt;(GPUDirect Storage I/O)">
<ellipse fill="lemonchiffon" stroke="black" cx="748.23" cy="-199.28" rx="126.93" ry="25.46"/>
<text text-anchor="start" x="723.11" y="-200.98" font-family="Helvetica,sans-Serif" font-weight="bold" font-size="14.00">KvikIO</text>
<text text-anchor="start" x="666.48" y="-186.98" font-family="Helvetica,sans-Serif" font-size="14.00">(GPUDirect Storage I/O)</text>
</a>
</g>
</g>
<!-- xarray_spatial&#45;&gt;kvikio -->
<g id="edge14" class="edge">
<title>xarray_spatial&#45;&gt;kvikio</title>
<path fill="none" stroke="black" stroke-dasharray="5,2" d="M1154.77,-345.42C1051.1,-308.41 905.56,-256.45 819.66,-225.78"/>
<polygon fill="black" stroke="black" points="820.99,-222.54 810.4,-222.47 818.64,-229.13 820.99,-222.54"/>
</g>
<!-- libnvcomp -->
<g id="node12" class="node">
<title>libnvcomp</title>
<g id="a_node12"><a xlink:href="https://developer.nvidia.com/nvcomp" xlink:title="&lt;b&gt;libnvcomp.so&lt;/b&gt;&lt;br /&gt;(GPU Decompression)">
<ellipse fill="lemonchiffon" stroke="black" cx="1011.23" cy="-199.28" rx="117.91" ry="25.46"/>
<text text-anchor="start" x="959.86" y="-200.98" font-family="Helvetica,sans-Serif" font-weight="bold" font-size="14.00">libnvcomp.so</text>
<text text-anchor="start" x="935.86" y="-186.98" font-family="Helvetica,sans-Serif" font-size="14.00">(GPU Decompression)</text>
</a>
</g>
</g>
<!-- xarray_spatial&#45;&gt;libnvcomp -->
<g id="edge15" class="edge">
<title>xarray_spatial&#45;&gt;libnvcomp</title>
<path fill="none" stroke="black" stroke-dasharray="5,2" d="M1171.5,-314.28C1130.28,-284.96 1085.32,-252.98 1053.53,-230.37"/>
<polygon fill="black" stroke="black" points="1055.93,-227.78 1045.76,-224.84 1051.88,-233.49 1055.93,-227.78"/>
</g>
<!-- dask -->
<g id="node13" class="node">
<title>dask</title>
<g id="a_node13"><a xlink:href="https://dask.org" xlink:title="&lt;b&gt;Dask&lt;/b&gt;&lt;br /&gt;(Distributed&#45;Ndarray)">
<ellipse fill="lemonchiffon" stroke="black" cx="1795.23" cy="-112.37" rx="116.32" ry="25.46"/>
<text text-anchor="start" x="1776.11" y="-114.07" font-family="Helvetica,sans-Serif" font-weight="bold" font-size="14.00">Dask</text>
<text text-anchor="start" x="1720.98" y="-100.07" font-family="Helvetica,sans-Serif" font-size="14.00">(Distributed&#45;Ndarray)</text>
</a>
</g>
</g>
<!-- xarray_spatial&#45;&gt;dask -->
<g id="edge16" class="edge">
<title>xarray_spatial&#45;&gt;dask</title>
<path fill="none" stroke="black" stroke-dasharray="5,2" d="M1400.04,-353.23C1480.56,-326.25 1585.09,-283.7 1665.23,-224.74 1689.09,-207.18 1686.33,-193.76 1708.23,-173.82 1720.27,-162.87 1734.39,-152.26 1747.7,-143.07"/>
<polygon fill="black" stroke="black" points="1749.64,-145.99 1755.96,-137.49 1745.72,-140.19 1749.64,-145.99"/>
</g>
<!-- dask_geopandas -->
<g id="node14" class="node">
<title>dask_geopandas</title>
<g id="a_node14"><a xlink:href="https://github.com/geopandas/dask-geopandas" xlink:title="&lt;b&gt;dask&#45;geopandas&lt;/b&gt;&lt;br /&gt;(Distributed GeoDataFrame)">
<ellipse fill="lemonchiffon" stroke="black" cx="1866.23" cy="-199.28" rx="148.67" ry="25.46"/>
<text text-anchor="start" x="1801.73" y="-200.98" font-family="Helvetica,sans-Serif" font-weight="bold" font-size="14.00">dask&#45;geopandas</text>
<text text-anchor="start" x="1769.11" y="-186.98" font-family="Helvetica,sans-Serif" font-size="14.00">(Distributed GeoDataFrame)</text>
</a>
</g>
</g>
<!-- xarray_spatial&#45;&gt;dask_geopandas -->
<g id="edge17" class="edge">
<title>xarray_spatial&#45;&gt;dask_geopandas</title>
<path fill="none" stroke="black" stroke-dasharray="5,2" d="M1399.2,-349.5C1515.73,-312.26 1687.32,-257.44 1786.83,-225.65"/>
<polygon fill="black" stroke="black" points="1787.81,-229.01 1796.27,-222.63 1785.67,-222.34 1787.81,-229.01"/>
</g>
<!-- shapely -->
<g id="node15" class="node">
<title>shapely</title>
<ellipse fill="lemonchiffon" stroke="black" cx="1835.23" cy="-25.46" rx="104.12" ry="25.46"/>
<text text-anchor="start" x="1804.11" y="-27.16" font-family="Helvetica,sans-Serif" font-weight="bold" font-size="14.00">Shapely</text>
<text text-anchor="start" x="1769.61" y="-13.16" font-family="Helvetica,sans-Serif" font-size="14.00">(Python Geometry)</text>
</g>
<!-- xarray_spatial&#45;&gt;shapely -->
<g id="edge18" class="edge">
<title>xarray_spatial&#45;&gt;shapely</title>
<path fill="none" stroke="black" stroke-dasharray="5,2" d="M1400.29,-352.86C1470.59,-327.05 1555.71,-285.87 1613.23,-224.74 1658.66,-176.46 1622.41,-132.81 1670.23,-86.91 1690.45,-67.51 1717.4,-54.25 1743.64,-45.22"/>
<polygon fill="black" stroke="black" points="1744.56,-48.6 1752.99,-42.19 1742.4,-41.94 1744.56,-48.6"/>
</g>
<!-- geopandas -->
<g id="node16" class="node">
<title>geopandas</title>
<ellipse fill="lemonchiffon" stroke="black" cx="2020.23" cy="-112.37" rx="90.86" ry="25.46"/>
<text text-anchor="start" x="1976.36" y="-114.07" font-family="Helvetica,sans-Serif" font-weight="bold" font-size="14.00">GeoPandas</text>
<text text-anchor="start" x="1963.98" y="-100.07" font-family="Helvetica,sans-Serif" font-size="14.00">(GeoDataFrame)</text>
</g>
<!-- xarray_spatial&#45;&gt;geopandas -->
<g id="edge19" class="edge">
<title>xarray_spatial&#45;&gt;geopandas</title>
<path fill="none" stroke="black" stroke-dasharray="5,2" d="M1405.42,-385.95C1638.56,-377.82 2114.98,-346.35 2217.23,-224.74 2231.79,-207.42 2230.68,-192.02 2217.23,-173.82 2194.69,-143.32 2157.02,-127.71 2120.63,-119.9"/>
<polygon fill="black" stroke="black" points="2121.36,-116.47 2110.88,-118 2120.03,-123.34 2121.36,-116.47"/>
</g>
<!-- awkward -->
<g id="node17" class="node">
<title>awkward</title>
<g id="a_node17"><a xlink:href="https://github.com/scikit-hep/awkward" xlink:title="&lt;b&gt;Awkward&lt;/b&gt;&lt;br /&gt;(Jagged Arrays)">
<ellipse fill="lemonchiffon" stroke="black" cx="2120.23" cy="-199.28" rx="87.68" ry="25.46"/>
<text text-anchor="start" x="2084.61" y="-200.98" font-family="Helvetica,sans-Serif" font-weight="bold" font-size="14.00">Awkward</text>
<text text-anchor="start" x="2066.23" y="-186.98" font-family="Helvetica,sans-Serif" font-size="14.00">(Jagged Arrays)</text>
</a>
</g>
</g>
<!-- xarray_spatial&#45;&gt;awkward -->
<g id="edge20" class="edge">
<title>xarray_spatial&#45;&gt;awkward</title>
<path fill="none" stroke="black" stroke-dasharray="5,2" d="M1402.59,-362.42C1551.54,-331.03 1806.41,-276.35 2024.23,-224.74 2030.99,-223.13 2038,-221.43 2045.02,-219.7"/>
<polygon fill="black" stroke="black" points="2045.69,-223.14 2054.55,-217.32 2044,-216.34 2045.69,-223.14"/>
</g>
<!-- spatialpandas -->
<g id="node18" class="node">
<title>spatialpandas</title>
<ellipse fill="lemonchiffon" stroke="black" cx="129.23" cy="-199.28" rx="109.96" ry="25.46"/>
<text text-anchor="start" x="73.36" y="-200.98" font-family="Helvetica,sans-Serif" font-weight="bold" font-size="14.00">SpatialPandas</text>
<text text-anchor="start" x="59.48" y="-186.98" font-family="Helvetica,sans-Serif" font-size="14.00">(Geometry&#45;Ndarray)</text>
</g>
<!-- xarray_spatial&#45;&gt;spatialpandas -->
<g id="edge21" class="edge">
<title>xarray_spatial&#45;&gt;spatialpandas</title>
<path fill="none" stroke="black" stroke-dasharray="5,2" d="M1148.4,-369.78C954.5,-340.63 574.61,-282.18 253.23,-224.74 242.97,-222.9 232.25,-220.91 221.59,-218.87"/>
<polygon fill="black" stroke="black" points="222.5,-215.48 212.02,-217.03 221.17,-222.36 222.5,-215.48"/>
</g>
<!-- pyproj -->
<g id="node19" class="node">
<title>pyproj</title>
<g id="a_node19"><a xlink:href="https://github.com/pyproj4/pyproj" xlink:title="&lt;b&gt;pyproj&lt;/b&gt;&lt;br /&gt;(Reprojection)">
<ellipse fill="lemonchiffon" stroke="black" cx="2343.23" cy="-199.28" rx="79.2" ry="25.46"/>
<text text-anchor="start" x="2318.48" y="-200.98" font-family="Helvetica,sans-Serif" font-weight="bold" font-size="14.00">pyproj</text>
<text text-anchor="start" x="2295.23" y="-186.98" font-family="Helvetica,sans-Serif" font-size="14.00">(Reprojection)</text>
</a>
</g>
</g>
<!-- xarray_spatial&#45;&gt;pyproj -->
<g id="edge22" class="edge">
<title>xarray_spatial&#45;&gt;pyproj</title>
<path fill="none" stroke="black" stroke-dasharray="5,2" d="M1404.18,-371C1591.03,-344.17 1949.11,-289.55 2250.23,-224.74 2257.78,-223.11 2265.63,-221.28 2273.43,-219.36"/>
<polygon fill="black" stroke="black" points="2274.07,-222.81 2282.92,-216.98 2272.37,-216.02 2274.07,-222.81"/>
</g>
<!-- deflate -->
<g id="node20" class="node">
<title>deflate</title>
<ellipse fill="lemonchiffon" stroke="black" cx="2532.23" cy="-199.28" rx="91.92" ry="25.46"/>
<text text-anchor="start" x="2504.11" y="-200.98" font-family="Helvetica,sans-Serif" font-weight="bold" font-size="14.00">deflate</text>
<text text-anchor="start" x="2475.23" y="-186.98" font-family="Helvetica,sans-Serif" font-size="14.00">(GeoTIFF Codec)</text>
</g>
<!-- xarray_spatial&#45;&gt;deflate -->
<g id="edge23" class="edge">
<title>xarray_spatial&#45;&gt;deflate</title>
<path fill="none" stroke="black" stroke-dasharray="5,2" d="M1404.66,-374.64C1618.59,-350.18 2061,-295.68 2431.23,-224.74 2438.88,-223.27 2446.82,-221.6 2454.74,-219.85"/>
<polygon fill="black" stroke="black" points="2455.43,-223.28 2464.4,-217.65 2453.88,-216.45 2455.43,-223.28"/>
</g>
<!-- xarray&#45;&gt;numpy -->
<g id="edge7" class="edge">
<title>xarray&#45;&gt;numpy</title>
<path fill="none" stroke="black" d="M395.23,-86.81C395.23,-79.22 395.23,-70.69 395.23,-62.5"/>
<polygon fill="black" stroke="black" points="398.73,-62.77 395.23,-52.77 391.73,-62.77 398.73,-62.77"/>
</g>
<!-- numba&#45;&gt;numpy -->
<g id="edge8" class="edge">
<title>numba&#45;&gt;numpy</title>
<path fill="none" stroke="black" d="M184.03,-93.88C228.99,-79.52 292.44,-59.27 338.04,-44.71"/>
<polygon fill="black" stroke="black" points="339.03,-48.07 347.5,-41.69 336.9,-41.4 339.03,-48.07"/>
</g>
<!-- scipy&#45;&gt;numpy -->
<g id="edge9" class="edge">
<title>scipy&#45;&gt;numpy</title>
<path fill="none" stroke="black" d="M573.18,-89.94C535.32,-76.44 486.83,-59.14 450.03,-46.01"/>
<polygon fill="black" stroke="black" points="451.51,-42.82 440.92,-42.76 449.16,-49.41 451.51,-42.82"/>
</g>
<!-- matplotlib&#45;&gt;numpy -->
<g id="edge10" class="edge">
<title>matplotlib&#45;&gt;numpy</title>
<path fill="none" stroke="black" d="M1377.21,-102.44C1339.79,-97.36 1291.37,-91.18 1248.23,-86.91 957.49,-58.11 609.67,-37.87 464.35,-30.04"/>
<polygon fill="black" stroke="black" points="464.68,-26.55 454.5,-29.51 464.3,-33.54 464.68,-26.55"/>
</g>
<!-- cuspatial&#45;&gt;cupy -->
<g id="edge24" class="edge">
<title>cuspatial&#45;&gt;cupy</title>
<path fill="none" stroke="black" stroke-dasharray="5,2" d="M1243.72,-175.08C1229.7,-165.07 1213.14,-153.26 1198.29,-142.66"/>
<polygon fill="black" stroke="black" points="1200.7,-140.09 1190.53,-137.13 1196.64,-145.78 1200.7,-140.09"/>
</g>
<!-- rtxpy&#45;&gt;cupy -->
<g id="edge25" class="edge">
<title>rtxpy&#45;&gt;cupy</title>
<path fill="none" stroke="black" stroke-dasharray="5,2" d="M1416.47,-180.48C1361.88,-166.35 1285.74,-146.63 1230.1,-132.23"/>
<polygon fill="black" stroke="black" points="1231.28,-128.92 1220.72,-129.8 1229.52,-135.7 1231.28,-128.92"/>
</g>
<!-- kvikio&#45;&gt;cupy -->
<g id="edge26" class="edge">
<title>kvikio&#45;&gt;cupy</title>
<path fill="none" stroke="black" stroke-dasharray="5,2" d="M834.97,-180.27C907.2,-165.28 1009.16,-144.11 1078.93,-129.62"/>
<polygon fill="black" stroke="black" points="1079.28,-133.13 1088.36,-127.67 1077.86,-126.27 1079.28,-133.13"/>
</g>
<!-- libnvcomp&#45;&gt;cupy -->
<g id="edge27" class="edge">
<title>libnvcomp&#45;&gt;cupy</title>
<path fill="none" stroke="black" stroke-dasharray="5,2" d="M1051.13,-175.08C1069.16,-164.59 1090.62,-152.11 1109.5,-141.13"/>
<polygon fill="black" stroke="black" points="1111.2,-144.19 1118.09,-136.13 1107.68,-138.14 1111.2,-144.19"/>
</g>
<!-- dask_geopandas&#45;&gt;dask -->
<g id="edge28" class="edge">
<title>dask_geopandas&#45;&gt;dask</title>
<path fill="none" stroke="black" stroke-dasharray="5,2" d="M1845.7,-173.72C1838.63,-165.27 1830.6,-155.66 1823.05,-146.64"/>
<polygon fill="black" stroke="black" points="1825.79,-144.46 1816.69,-139.03 1820.42,-148.95 1825.79,-144.46"/>
</g>
<!-- dask_geopandas&#45;&gt;geopandas -->
<g id="edge29" class="edge">
<title>dask_geopandas&#45;&gt;geopandas</title>
<path fill="none" stroke="black" stroke-dasharray="5,2" d="M1909.13,-174.63C1928,-164.22 1950.3,-151.93 1969.95,-141.1"/>
<polygon fill="black" stroke="black" points="1971.55,-144.21 1978.62,-136.31 1968.17,-138.08 1971.55,-144.21"/>
</g>
<!-- geopandas&#45;&gt;shapely -->
<g id="edge30" class="edge">
<title>geopandas&#45;&gt;shapely</title>
<path fill="none" stroke="black" stroke-dasharray="5,2" d="M1974.03,-90.16C1949.56,-78.93 1919.26,-65.02 1893.23,-53.07"/>
<polygon fill="black" stroke="black" points="1895.03,-50.05 1884.48,-49.06 1892.11,-56.41 1895.03,-50.05"/>
</g>
<!-- spatialpandas&#45;&gt;numba -->
<g id="edge31" class="edge">
<title>spatialpandas&#45;&gt;numba</title>
<path fill="none" stroke="black" stroke-dasharray="5,2" d="M129.23,-173.72C129.23,-166.13 129.23,-157.6 129.23,-149.41"/>
<polygon fill="black" stroke="black" points="132.73,-149.68 129.23,-139.68 125.73,-149.68 132.73,-149.68"/>
</g>
</g>
</svg>
