<?xml version="1.0" encoding="UTF-8" standalone="no"?>
<!DOCTYPE svg PUBLIC "-//W3C//DTD SVG 1.1//EN"
 "http://www.w3.org/Graphics/SVG/1.1/DTD/svg11.dtd">
<!-- Generated by graphviz version 2.44.1 (20200629.0846)
 -->
<!-- Title: G Pages: 1 -->
<svg width="1177pt" height="766pt"
 viewBox="0.00 0.00 1177.07 765.64" xmlns="http://www.w3.org/2000/svg" xmlns:xlink="http://www.w3.org/1999/xlink">
<g id="graph0" class="graph" transform="scale(1 1) rotate(0) translate(4 761.64)">
<title>G</title>
<polygon fill="white" stroke="transparent" points="-4,4 -4,-761.64 1173.07,-761.64 1173.07,4 -4,4"/>
<!-- xarray_spatial -->
<g id="node1" class="node">
<title>xarray_spatial</title>
<ellipse fill="#90ee90" stroke="black" cx="827.94" cy="-639.56" rx="118.17" ry="118.17"/>
<text text-anchor="start" x="760.44" y="-644.56" font-family="Helvetica,sans-Serif" font-weight="bold" font-size="20.00">Xarray&#45;Spatial</text>
<text text-anchor="start" x="752.44" y="-624.56" font-family="Helvetica,sans-Serif" font-size="20.00">(Raster Analysis)</text>
</g>
<!-- datashader -->
<g id="node2" class="node">
<title>datashader</title>
<ellipse fill="aquamarine" stroke="black" cx="750.94" cy="-460.01" rx="110.12" ry="25.41"/>
<text text-anchor="start" x="713.94" y="-463.81" font-family="Helvetica,sans-Serif" font-weight="bold" font-size="14.00">Datashader</text>
<text text-anchor="start" x="680.94" y="-449.81" font-family="Helvetica,sans-Serif" font-size="14.00">(Rasterization Pipeline)</text>
</g>
<!-- xarray_spatial&#45;&gt;datashader -->
<g id="edge1" class="edge">
<title>xarray_spatial&#45;&gt;datashader</title>
<path fill="none" stroke="black" d="M781.27,-530.93C775.61,-517.88 770.2,-505.41 765.55,-494.7"/>
<polygon fill="black" stroke="black" points="768.71,-493.18 761.52,-485.4 762.29,-495.96 768.71,-493.18"/>
</g>
<!-- numba -->
<g id="node3" class="node">
<title>numba</title>
<ellipse fill="aquamarine" stroke="black" cx="555.94" cy="-286.19" rx="72.66" ry="25.41"/>
<text text-anchor="start" x="532.44" y="-289.99" font-family="Helvetica,sans-Serif" font-weight="bold" font-size="14.00">Numba</text>
<text text-anchor="start" x="512.44" y="-275.99" font-family="Helvetica,sans-Serif" font-size="14.00">(JIT Compiler)</text>
</g>
<!-- xarray_spatial&#45;&gt;numba -->
<g id="edge2" class="edge">
<title>xarray_spatial&#45;&gt;numba</title>
<path fill="none" stroke="black" d="M715.62,-603.12C623.72,-567.49 499.83,-502.71 441.94,-398.56 430.95,-378.78 430.28,-367.04 441.94,-347.65 453.01,-329.25 471.76,-316.16 490.9,-306.97"/>
<polygon fill="black" stroke="black" points="492.59,-310.05 500.29,-302.77 489.73,-303.66 492.59,-310.05"/>
</g>
<!-- xarray -->
<g id="node4" class="node">
<title>xarray</title>
<ellipse fill="aquamarine" stroke="black" cx="911.94" cy="-373.1" rx="89.19" ry="25.41"/>
<text text-anchor="start" x="890.44" y="-376.9" font-family="Helvetica,sans-Serif" font-weight="bold" font-size="14.00">Xarray</text>
<text text-anchor="start" x="856.94" y="-362.9" font-family="Helvetica,sans-Serif" font-size="14.00">(Labeled&#45;Ndarray)</text>
</g>
<!-- xarray_spatial&#45;&gt;xarray -->
<g id="edge3" class="edge">
<title>xarray_spatial&#45;&gt;xarray</title>
<path fill="none" stroke="black" d="M863.45,-526.79C877.04,-483.98 891.57,-438.24 901.14,-408.11"/>
<polygon fill="black" stroke="black" points="904.5,-409.1 904.19,-398.51 897.83,-406.98 904.5,-409.1"/>
</g>
<!-- cupy -->
<g id="node5" class="node">
<title>cupy</title>
<g id="a_node5"><a xlink:href="https://github.com/cupy/cupy" xlink:title="&lt;b&gt;CuPy&lt;/b&gt;&lt;br /&gt;(GPU&#45;Ndarray)">
<ellipse fill="lemonchiffon" stroke="black" cx="836.94" cy="-199.28" rx="76.24" ry="25.41"/>
<text text-anchor="start" x="819.44" y="-203.08" font-family="Helvetica,sans-Serif" font-weight="bold" font-size="14.00">CuPy</text>
<text text-anchor="start" x="790.94" y="-189.08" font-family="Helvetica,sans-Serif" font-size="14.00">(GPU&#45;Ndarray)</text>
</a>
</g>
</g>
<!-- xarray_spatial&#45;&gt;cupy -->
<g id="edge4" class="edge">
<title>xarray_spatial&#45;&gt;cupy</title>
<path fill="none" stroke="black" d="M931.73,-583.02C1056.5,-509.21 1237.84,-374.84 1141.94,-260.74 1112.05,-225.16 981.42,-234.31 935.94,-224.74 926.2,-222.68 915.96,-220.35 905.91,-217.96"/>
<polygon fill="black" stroke="black" points="906.49,-214.5 895.95,-215.56 904.85,-221.31 906.49,-214.5"/>
</g>
<!-- datashader&#45;&gt;numba -->
<g id="edge13" class="edge">
<title>datashader&#45;&gt;numba</title>
<path fill="none" stroke="black" d="M743.74,-434.29C735.39,-409.49 719.4,-371.62 693.94,-347.65 673.94,-328.81 647.11,-315.25 622.43,-305.81"/>
<polygon fill="black" stroke="black" points="623.33,-302.42 612.74,-302.27 620.93,-308.99 623.33,-302.42"/>
</g>
<!-- datashader&#45;&gt;xarray -->
<g id="edge14" class="edge">
<title>datashader&#45;&gt;xarray</title>
<path fill="none" stroke="black" d="M793.67,-436.48C814.62,-425.43 839.98,-412.06 861.84,-400.53"/>
<polygon fill="black" stroke="black" points="863.76,-403.47 870.97,-395.71 860.49,-397.28 863.76,-403.47"/>
</g>
<!-- dask -->
<g id="node7" class="node">
<title>dask</title>
<g id="a_node7"><a xlink:href="https://dask.pydata.org" xlink:title="&lt;b&gt;Dask&lt;/b&gt;&lt;br /&gt;(Distributed&#45;Ndarray)">
<ellipse fill="aquamarine" stroke="black" cx="785.94" cy="-286.19" rx="101.23" ry="25.41"/>
<text text-anchor="start" x="769.44" y="-289.99" font-family="Helvetica,sans-Serif" font-weight="bold" font-size="14.00">Dask</text>
<text text-anchor="start" x="722.44" y="-275.99" font-family="Helvetica,sans-Serif" font-size="14.00">(Distributed&#45;Ndarray)</text>
</a>
</g>
</g>
<!-- datashader&#45;&gt;dask -->
<g id="edge15" class="edge">
<title>datashader&#45;&gt;dask</title>
<path fill="none" stroke="black" d="M756.9,-434.36C759.48,-423.42 762.47,-410.37 764.94,-398.56 770.32,-372.96 775.78,-343.91 779.78,-321.9"/>
<polygon fill="black" stroke="black" points="783.23,-322.48 781.57,-312.02 776.34,-321.24 783.23,-322.48"/>
</g>
<!-- pandas -->
<g id="node10" class="node">
<title>pandas</title>
<ellipse fill="aquamarine" stroke="black" cx="656.94" cy="-199.28" rx="72.25" ry="25.41"/>
<text text-anchor="start" x="632.44" y="-203.08" font-family="Helvetica,sans-Serif" font-weight="bold" font-size="14.00">Pandas</text>
<text text-anchor="start" x="613.94" y="-189.08" font-family="Helvetica,sans-Serif" font-size="14.00">(Tabular Data)</text>
</g>
<!-- datashader&#45;&gt;pandas -->
<g id="edge16" class="edge">
<title>datashader&#45;&gt;pandas</title>
<path fill="none" stroke="black" d="M750.06,-434.51C748.15,-410.58 742.33,-374 724.94,-347.65 710.06,-325.09 690.14,-334.64 675.94,-311.65 661.83,-288.78 657.38,-258.49 656.29,-235.27"/>
<polygon fill="black" stroke="black" points="659.79,-235.05 656.01,-225.15 652.79,-235.25 659.79,-235.05"/>
</g>
<!-- spatialpandas -->
<g id="node11" class="node">
<title>spatialpandas</title>
<ellipse fill="aquamarine" stroke="black" cx="296.94" cy="-373.1" rx="98.08" ry="25.41"/>
<text text-anchor="start" x="250.44" y="-376.9" font-family="Helvetica,sans-Serif" font-weight="bold" font-size="14.00">SpatialPandas</text>
<text text-anchor="start" x="235.44" y="-362.9" font-family="Helvetica,sans-Serif" font-size="14.00">(Geometry&#45;Ndarray)</text>
</g>
<!-- datashader&#45;&gt;spatialpandas -->
<g id="edge17" class="edge">
<title>datashader&#45;&gt;spatialpandas</title>
<path fill="none" stroke="black" d="M667.15,-443.34C587.05,-428.36 466.74,-405.86 385.19,-390.61"/>
<polygon fill="black" stroke="black" points="385.42,-387.09 374.95,-388.69 384.13,-393.97 385.42,-387.09"/>
</g>
<!-- holoviews -->
<g id="node12" class="node">
<title>holoviews</title>
<ellipse fill="lemonchiffon" stroke="black" cx="567.94" cy="-373.1" rx="116.85" ry="25.41"/>
<text text-anchor="start" x="532.94" y="-376.9" font-family="Helvetica,sans-Serif" font-weight="bold" font-size="14.00">HoloViews</text>
<text text-anchor="start" x="493.44" y="-362.9" font-family="Helvetica,sans-Serif" font-size="14.00">(Advanced Visualization)</text>
</g>
<!-- datashader&#45;&gt;holoviews -->
<g id="edge18" class="edge">
<title>datashader&#45;&gt;holoviews</title>
<path fill="none" stroke="black" stroke-dasharray="5,2" d="M703.34,-436.93C679.49,-425.86 650.42,-412.37 625.34,-400.74"/>
<polygon fill="black" stroke="black" points="626.49,-397.41 615.95,-396.37 623.54,-403.76 626.49,-397.41"/>
</g>
<!-- numba&#45;&gt;cupy -->
<g id="edge10" class="edge">
<title>numba&#45;&gt;cupy</title>
<path fill="none" stroke="black" d="M609.79,-268.92C656.11,-254.92 723.03,-234.7 772.25,-219.83"/>
<polygon fill="black" stroke="black" points="773.28,-223.17 781.84,-216.93 771.26,-216.47 773.28,-223.17"/>
</g>
<!-- numpy -->
<g id="node6" class="node">
<title>numpy</title>
<ellipse fill="aquamarine" stroke="black" cx="656.94" cy="-112.37" rx="52.15" ry="25.41"/>
<text text-anchor="start" x="632.94" y="-116.17" font-family="Helvetica,sans-Serif" font-weight="bold" font-size="14.00">NumPy</text>
<text text-anchor="start" x="627.94" y="-102.17" font-family="Helvetica,sans-Serif" font-size="14.00">(Ndarray)</text>
</g>
<!-- numba&#45;&gt;numpy -->
<g id="edge9" class="edge">
<title>numba&#45;&gt;numpy</title>
<path fill="none" stroke="black" d="M555.32,-260.33C555.83,-236.46 559.63,-200.22 575.94,-173.82 585.04,-159.11 599.13,-146.77 613.03,-137.15"/>
<polygon fill="black" stroke="black" points="615.17,-139.93 621.61,-131.52 611.33,-134.08 615.17,-139.93"/>
</g>
<!-- xarray&#45;&gt;cupy -->
<g id="edge7" class="edge">
<title>xarray&#45;&gt;cupy</title>
<path fill="none" stroke="black" d="M912.7,-347.36C912.45,-323.9 909.5,-288.24 895.94,-260.74 890.42,-249.53 882.05,-239.09 873.33,-230.15"/>
<polygon fill="black" stroke="black" points="875.58,-227.46 865.97,-223 870.71,-232.48 875.58,-227.46"/>
</g>
<!-- xarray&#45;&gt;numpy -->
<g id="edge5" class="edge">
<title>xarray&#45;&gt;numpy</title>
<path fill="none" stroke="black" d="M991.75,-361.58C1050.58,-351.99 1123.45,-335.64 1141.94,-311.65 1153.37,-296.83 1156.27,-191.9 1139.94,-173.82 1112.15,-143.06 843.17,-123.94 719.09,-116.68"/>
<polygon fill="black" stroke="black" points="719.16,-113.18 708.97,-116.1 718.76,-120.17 719.16,-113.18"/>
</g>
<!-- xarray&#45;&gt;dask -->
<g id="edge6" class="edge">
<title>xarray&#45;&gt;dask</title>
<path fill="none" stroke="black" d="M878.18,-349.35C863.05,-339.15 845.03,-327.01 828.95,-316.17"/>
<polygon fill="black" stroke="black" points="830.49,-312.99 820.24,-310.3 826.58,-318.79 830.49,-312.99"/>
</g>
<!-- rasterio -->
<g id="node8" class="node">
<title>rasterio</title>
<ellipse fill="lemonchiffon" stroke="black" cx="1037.94" cy="-286.19" rx="94.51" ry="25.41"/>
<text text-anchor="start" x="1010.44" y="-289.99" font-family="Helvetica,sans-Serif" font-weight="bold" font-size="14.00">Rasterio</text>
<text text-anchor="start" x="978.94" y="-275.99" font-family="Helvetica,sans-Serif" font-size="14.00">(Python Raster I/O)</text>
</g>
<!-- xarray&#45;&gt;rasterio -->
<g id="edge11" class="edge">
<title>xarray&#45;&gt;rasterio</title>
<path fill="none" stroke="black" stroke-dasharray="5,2" d="M945.71,-349.35C961.11,-338.97 979.49,-326.58 995.78,-315.6"/>
<polygon fill="black" stroke="black" points="997.75,-318.5 1004.09,-310.01 993.84,-312.69 997.75,-318.5"/>
</g>
<!-- dask&#45;&gt;cupy -->
<g id="edge8" class="edge">
<title>dask&#45;&gt;cupy</title>
<path fill="none" stroke="black" d="M800.7,-260.63C805.81,-252.11 811.64,-242.41 817.1,-233.32"/>
<polygon fill="black" stroke="black" points="820.25,-234.87 822.4,-224.49 814.25,-231.26 820.25,-234.87"/>
</g>
<!-- dask&#45;&gt;pandas -->
<g id="edge20" class="edge">
<title>dask&#45;&gt;pandas</title>
<path fill="none" stroke="black" d="M751.04,-262.21C734.9,-251.59 715.6,-238.89 698.7,-227.76"/>
<polygon fill="black" stroke="black" points="700.38,-224.68 690.1,-222.11 696.53,-230.53 700.38,-224.68"/>
</g>
<!-- gdal -->
<g id="node9" class="node">
<title>gdal</title>
<ellipse fill="lemonchiffon" stroke="black" cx="1037.94" cy="-199.28" rx="92.76" ry="25.41"/>
<text text-anchor="start" x="1017.94" y="-203.08" font-family="Helvetica,sans-Serif" font-weight="bold" font-size="14.00">GDAL</text>
<text text-anchor="start" x="980.44" y="-189.08" font-family="Helvetica,sans-Serif" font-size="14.00">(C/C++ Raster I/O)</text>
</g>
<!-- rasterio&#45;&gt;gdal -->
<g id="edge12" class="edge">
<title>rasterio&#45;&gt;gdal</title>
<path fill="none" stroke="black" stroke-dasharray="5,2" d="M1037.94,-260.63C1037.94,-252.62 1037.94,-243.57 1037.94,-234.97"/>
<polygon fill="black" stroke="black" points="1041.44,-234.78 1037.94,-224.78 1034.44,-234.78 1041.44,-234.78"/>
</g>
<!-- pandas&#45;&gt;numpy -->
<g id="edge19" class="edge">
<title>pandas&#45;&gt;numpy</title>
<path fill="none" stroke="black" d="M656.94,-173.72C656.94,-165.71 656.94,-156.66 656.94,-148.05"/>
<polygon fill="black" stroke="black" points="660.44,-147.87 656.94,-137.87 653.44,-147.87 660.44,-147.87"/>
</g>
<!-- spatialpandas&#45;&gt;numba -->
<g id="edge22" class="edge">
<title>spatialpandas&#45;&gt;numba</title>
<path fill="none" stroke="black" d="M356.04,-352.73C397.45,-339.15 452.67,-321.05 494.58,-307.31"/>
<polygon fill="black" stroke="black" points="495.7,-310.62 504.12,-304.18 493.52,-303.97 495.7,-310.62"/>
</g>
<!-- spatialpandas&#45;&gt;pandas -->
<g id="edge21" class="edge">
<title>spatialpandas&#45;&gt;pandas</title>
<path fill="none" stroke="black" d="M332.94,-349.14C382.52,-317.56 466.58,-264.21 473.94,-260.74 511.29,-243.14 555.16,-228.46 590.58,-217.97"/>
<polygon fill="black" stroke="black" points="591.71,-221.29 600.33,-215.13 589.75,-214.57 591.71,-221.29"/>
</g>
<!-- geopandas -->
<g id="node13" class="node">
<title>geopandas</title>
<ellipse fill="lemonchiffon" stroke="black" cx="296.94" cy="-286.19" rx="84.71" ry="25.41"/>
<text text-anchor="start" x="259.44" y="-289.99" font-family="Helvetica,sans-Serif" font-weight="bold" font-size="14.00">Geopandas</text>
<text text-anchor="start" x="244.94" y="-275.99" font-family="Helvetica,sans-Serif" font-size="14.00">(GeoDataFrame)</text>
</g>
<!-- spatialpandas&#45;&gt;geopandas -->
<g id="edge23" class="edge">
<title>spatialpandas&#45;&gt;geopandas</title>
<path fill="none" stroke="black" stroke-dasharray="5,2" d="M296.94,-347.54C296.94,-339.53 296.94,-330.48 296.94,-321.88"/>
<polygon fill="black" stroke="black" points="300.44,-321.7 296.94,-311.7 293.44,-321.7 300.44,-321.7"/>
</g>
<!-- rtree -->
<g id="node14" class="node">
<title>rtree</title>
<ellipse fill="lemonchiffon" stroke="black" cx="143.94" cy="-199.28" rx="105.22" ry="25.41"/>
<text text-anchor="start" x="124.44" y="-203.08" font-family="Helvetica,sans-Serif" font-weight="bold" font-size="14.00">RTree</text>
<text text-anchor="start" x="77.44" y="-189.08" font-family="Helvetica,sans-Serif" font-size="14.00">(Python Spatial Index)</text>
</g>
<!-- geopandas&#45;&gt;rtree -->
<g id="edge24" class="edge">
<title>geopandas&#45;&gt;rtree</title>
<path fill="none" stroke="black" stroke-dasharray="5,2" d="M257.94,-263.54C238.43,-252.72 214.59,-239.49 193.77,-227.93"/>
<polygon fill="black" stroke="black" points="195.19,-224.72 184.75,-222.92 191.79,-230.84 195.19,-224.72"/>
</g>
<!-- fiona -->
<g id="node16" class="node">
<title>fiona</title>
<ellipse fill="lemonchiffon" stroke="black" cx="418.94" cy="-199.28" rx="94.09" ry="25.41"/>
<text text-anchor="start" x="400.44" y="-203.08" font-family="Helvetica,sans-Serif" font-weight="bold" font-size="14.00">Fiona</text>
<text text-anchor="start" x="360.44" y="-189.08" font-family="Helvetica,sans-Serif" font-size="14.00">(Python Vector I/O)</text>
</g>
<!-- geopandas&#45;&gt;fiona -->
<g id="edge26" class="edge">
<title>geopandas&#45;&gt;fiona</title>
<path fill="none" stroke="black" stroke-dasharray="5,2" d="M329.32,-262.66C344.09,-252.38 361.76,-240.08 377.49,-229.13"/>
<polygon fill="black" stroke="black" points="379.79,-231.8 386,-223.21 375.79,-226.05 379.79,-231.8"/>
</g>
<!-- shapely -->
<g id="node18" class="node">
<title>shapely</title>
<ellipse fill="lemonchiffon" stroke="black" cx="318.94" cy="-112.37" rx="93.18" ry="25.41"/>
<text text-anchor="start" x="292.94" y="-116.17" font-family="Helvetica,sans-Serif" font-weight="bold" font-size="14.00">Shapely</text>
<text text-anchor="start" x="260.94" y="-102.17" font-family="Helvetica,sans-Serif" font-size="14.00">(Python Geometry)</text>
</g>
<!-- geopandas&#45;&gt;shapely -->
<g id="edge28" class="edge">
<title>geopandas&#45;&gt;shapely</title>
<path fill="none" stroke="black" stroke-dasharray="5,2" d="M300.1,-260.57C303.87,-231.1 310.22,-181.54 314.49,-148.16"/>
<polygon fill="black" stroke="black" points="318,-148.3 315.8,-137.94 311.06,-147.41 318,-148.3"/>
</g>
<!-- libspatialindex -->
<g id="node15" class="node">
<title>libspatialindex</title>
<ellipse fill="lemonchiffon" stroke="black" cx="103.94" cy="-112.37" rx="103.89" ry="25.41"/>
<text text-anchor="start" x="56.94" y="-116.17" font-family="Helvetica,sans-Serif" font-weight="bold" font-size="14.00">libspatialindex</text>
<text text-anchor="start" x="38.44" y="-102.17" font-family="Helvetica,sans-Serif" font-size="14.00">(C/C++ Spatial Index)</text>
</g>
<!-- rtree&#45;&gt;libspatialindex -->
<g id="edge25" class="edge">
<title>rtree&#45;&gt;libspatialindex</title>
<path fill="none" stroke="black" stroke-dasharray="5,2" d="M132.38,-173.72C128.44,-165.36 123.96,-155.86 119.75,-146.92"/>
<polygon fill="black" stroke="black" points="122.92,-145.43 115.49,-137.87 116.58,-148.41 122.92,-145.43"/>
</g>
<!-- geos -->
<g id="node17" class="node">
<title>geos</title>
<ellipse fill="lemonchiffon" stroke="black" cx="378.94" cy="-25.46" rx="92.76" ry="25.41"/>
<text text-anchor="start" x="358.44" y="-29.26" font-family="Helvetica,sans-Serif" font-weight="bold" font-size="14.00">GEOS</text>
<text text-anchor="start" x="321.44" y="-15.26" font-family="Helvetica,sans-Serif" font-size="14.00">(C/C++ Vector I/O)</text>
</g>
<!-- fiona&#45;&gt;geos -->
<g id="edge27" class="edge">
<title>fiona&#45;&gt;geos</title>
<path fill="none" stroke="black" stroke-dasharray="5,2" d="M423.75,-173.75C427.25,-150.76 429.96,-115.7 420.94,-86.91 417.82,-76.94 412.41,-67.17 406.49,-58.5"/>
<polygon fill="black" stroke="black" points="409.18,-56.24 400.47,-50.22 403.52,-60.36 409.18,-56.24"/>
</g>
<!-- fiona&#45;&gt;shapely -->
<g id="edge30" class="edge">
<title>fiona&#45;&gt;shapely</title>
<path fill="none" stroke="black" stroke-dasharray="5,2" d="M391.35,-174.85C379.88,-165.11 366.42,-153.68 354.23,-143.33"/>
<polygon fill="black" stroke="black" points="356.33,-140.52 346.44,-136.72 351.8,-145.86 356.33,-140.52"/>
</g>
<!-- shapely&#45;&gt;geos -->
<g id="edge29" class="edge">
<title>shapely&#45;&gt;geos</title>
<path fill="none" stroke="black" stroke-dasharray="5,2" d="M335.98,-87.26C342.18,-78.48 349.31,-68.4 355.95,-59"/>
<polygon fill="black" stroke="black" points="358.96,-60.81 361.87,-50.62 353.24,-56.77 358.96,-60.81"/>
</g>
</g>
</svg>
