<svg width="245" height="160" viewBox="0 0 145 60" fill="none" xmlns="http://www.w3.org/2000/svg">
<path d="M24.9936 27.0945C22.6379 22.8771 22.6726 15.6949 18.8853 15.6949C13.8008 15.6949 15.3062 28.6635 9.21094 29.9855H20.8765C22.6509 29.6561 23.9611 28.5855 24.9936 27.0945Z" fill="#DE9F3E"/>
<path d="M63.4048 19.947C59.483 19.947 60.5676 28.8196 56.0254 29.9379L70.7321 29.8599C66.0034 28.7459 67.3266 19.947 63.4048 19.947Z" fill="#9C326F"/>
<path d="M29.6836 29.9856C40.2603 29.9856 37.3059 59.8456 44.9803 59.8456C52.6548 59.8456 49.4314 29.9162 60.3986 29.9162C59.9994 29.9162 30.0567 29.9856 29.6836 29.9856Z" fill="#9C326F"/>
<path d="M8.09205 22.1966C4.65614 22.1966 5.6496 29.1924 1.59766 29.9856H14.5561C10.3349 29.188 11.5236 22.1966 8.09205 22.1966Z" fill="#16255F"/>
<path d="M0.304688 29.9856C7.39343 29.9856 5.44988 42.187 10.5907 42.187C15.7316 42.187 13.5277 29.9856 20.8768 29.9856C20.4603 29.9856 0.703809 29.9856 0.304688 29.9856Z" fill="#DE9F3E"/>
<path d="M40.9673 0.22525C38.0954 0.22525 36.6941 4.40799 35.5098 9.63967C41.002 11.7549 39.2754 28.4988 47.6569 29.9812H55.1925C45.5746 27.9874 48.3684 0.22525 40.9673 0.22525Z" fill="#16255F"/>
<path d="M28.517 29.9856C28.1916 29.9162 27.8879 29.8165 27.6016 29.6908C27.3109 29.8165 27.0116 29.9162 26.6992 29.9856H28.517Z" fill="#D59C3B"/>
<path d="M35.514 9.63967C35.1409 9.49663 34.7375 9.41861 34.295 9.41861C28.7463 9.41861 28.9589 21.3687 24.998 27.0945C25.6444 28.2518 26.4687 29.188 27.6053 29.6865C32.4859 27.5583 33.7527 17.433 35.514 9.63967Z" fill="#9C326F"/>
<path d="M24.994 27.0945C23.9615 28.5855 22.6513 29.6561 20.877 29.9812H26.6946C27.0113 29.9119 27.3106 29.8122 27.5969 29.6865C26.4647 29.188 25.6404 28.2561 24.994 27.0945Z" fill="#D59C3B"/>
<path d="M24.994 27.0945C23.9615 28.5855 22.6513 29.6561 20.877 29.9812H26.6946C27.0113 29.9119 27.3106 29.8122 27.5969 29.6865C26.4647 29.188 25.6404 28.2561 24.994 27.0945Z" fill="#5E2D69"/>
<path d="M35.5146 9.63968C33.6535 17.8925 32.339 28.7633 26.6992 29.9812H47.6618C39.2802 28.4989 41.0068 11.7592 35.5146 9.63968Z" fill="#16225D"/>
<path d="M35.5146 9.63968C33.6535 17.8925 32.339 28.7633 26.6992 29.9812H47.6618C39.2802 28.4989 41.0068 11.7592 35.5146 9.63968Z" fill="#5E2D69"/>
<path d="M13.9219 29.9856C23.991 29.9856 21.2319 50.7822 28.5375 50.7822C35.8432 50.7822 32.7109 29.9856 43.1532 29.9856C42.7193 29.9856 14.3383 29.9856 13.9219 29.9856Z" fill="#16255F"/>
<path d="M45.7871 29.9812C54.6459 29.9812 52.2164 45.4379 58.6458 45.4379C65.0751 45.4379 62.407 29.8642 71.5955 29.8642C71.1486 29.8599 46.2166 29.9812 45.7871 29.9812Z" fill="#16255F"/>
<path d="M53.6567 14.6416C47.9866 14.6416 49.6785 28.6159 42.8457 29.9812L64.4199 29.8902C57.2965 28.5292 59.3268 14.6416 53.6567 14.6416Z" fill="#DE9F3E"/>
<path d="M91.9503 27.5608L88.7747 22.3465H88.753L85.5079 27.5608H82.0547L86.9873 20.1012L82.1979 12.75H85.9201L88.9135 17.6609H88.9352L92.0327 12.75H95.4296L90.6575 19.8065L95.6552 27.5608H91.9503Z" fill="#16255F"/>
<path d="M105.503 24.6871C105.503 25.7447 105.589 27.2921 105.654 27.5608H102.709C102.622 27.3398 102.557 26.7546 102.553 26.4729C102.149 27.097 101.394 27.8165 99.4247 27.8165C96.7393 27.8165 95.6113 26.0524 95.6113 24.3317C95.6113 21.8003 97.646 20.63 100.908 20.63C101.451 20.63 102.123 20.63 102.496 20.63V19.9495C102.496 19.1607 102.21 18.3805 100.783 18.3805C99.4811 18.3805 99.1991 18.9309 99.0559 19.7371H96.1276C96.2924 17.7606 97.5158 16.1612 100.9 16.1829C103.88 16.2002 105.503 17.3662 105.503 20.0102V24.6871V24.6871ZM102.496 22.4982C102.24 22.4982 101.646 22.4982 101.242 22.4982C99.3856 22.4982 98.6958 23.066 98.6958 24.1366C98.6958 24.9428 99.1904 25.619 100.297 25.619C102.253 25.619 102.496 24.258 102.496 22.7886V22.4982Z" fill="#16255F"/>
<path d="M107.75 19.4597C107.75 18.3544 107.746 17.3748 107.729 16.4429H110.752C110.791 16.6943 110.835 17.7953 110.835 18.3934C111.325 17.1234 112.514 16.1959 114.405 16.1829V19.1216C112.171 19.0653 110.835 19.6634 110.835 22.7149V27.5608H107.755V19.4597H107.75Z" fill="#16255F"/>
<path d="M115.684 19.4597C115.684 18.3544 115.679 17.3748 115.662 16.4429H118.686C118.725 16.6943 118.768 17.7953 118.768 18.3934C119.259 17.1234 120.447 16.1959 122.339 16.1829V19.1216C120.105 19.0653 118.768 19.6634 118.768 22.7149V27.5608H115.688V19.4597H115.684Z" fill="#16255F"/>
<path d="M132.848 24.6871C132.848 25.7447 132.935 27.2921 133 27.5608H130.054C129.968 27.3398 129.903 26.7546 129.898 26.4729C129.495 27.097 128.74 27.8165 126.77 27.8165C124.085 27.8165 122.957 26.0524 122.957 24.3317C122.957 21.8003 124.992 20.63 128.254 20.63C128.796 20.63 129.469 20.63 129.842 20.63V19.9495C129.842 19.1607 129.556 18.3805 128.128 18.3805C126.827 18.3805 126.545 18.9309 126.402 19.7371H123.473C123.638 17.7606 124.862 16.1612 128.245 16.1829C131.226 16.2002 132.848 17.3662 132.848 20.0102V24.6871V24.6871ZM129.846 22.4982C129.59 22.4982 128.996 22.4982 128.592 22.4982C126.736 22.4982 126.046 23.066 126.046 24.1366C126.046 24.9428 126.54 25.619 127.647 25.619C129.603 25.619 129.846 24.258 129.846 22.7886V22.4982Z" fill="#16255F"/>
<path d="M137.13 16.4429C138.279 20.2789 139.281 23.7031 139.459 24.7304H139.481C139.719 23.6078 140.375 21.1198 141.702 16.4429H144.769L141.03 27.8815C139.967 31.0804 139.077 32.0339 136.405 32.0339C136.132 32.0339 135.494 32.0123 134.96 31.9516V29.4766C135.169 29.4983 135.507 29.52 135.759 29.52C136.891 29.52 137.459 29.1255 137.876 27.8989L133.828 16.4386H137.13V16.4429Z" fill="#16255F"/>
<path d="M85.7677 42.5927C86.0887 44.01 87.1082 44.6342 88.7437 44.6342C90.3749 44.6342 91.0734 43.9884 91.0734 42.9568C91.0734 41.8081 90.3923 41.3097 87.9759 40.7462C84.1278 39.8446 83.1777 38.4446 83.1777 36.5418C83.1777 34.0798 85.0215 32.4067 88.3663 32.4067C92.1189 32.4067 93.6156 34.4222 93.8152 36.4898H90.735C90.5875 35.6185 90.1059 34.678 88.2839 34.678C87.0431 34.678 86.2969 35.1894 86.2969 36.1907C86.2969 37.1746 86.8956 37.569 89.1819 38.1022C93.2946 39.0688 94.1926 40.5988 94.1926 42.5883C94.1926 45.1673 92.2404 46.9358 88.5051 46.9358C84.9174 46.9358 83.0259 45.1717 82.6875 42.597H85.7677V42.5927Z" fill="#16255F"/>
<path d="M98.7558 45.7958V50.7934H95.8361V38.6873C95.8361 37.8291 95.8361 36.9839 95.8145 36.13H98.6604C98.6994 36.4117 98.7558 37.0619 98.7558 37.452C99.2113 36.6761 100.157 35.8873 101.84 35.8873C104.222 35.8873 106.066 37.8768 106.066 41.1666C106.066 44.9073 104.009 46.9791 101.437 46.9791C99.9401 46.9791 99.1593 46.4156 98.7558 45.7958ZM103.085 41.2793C103.085 39.3375 102.3 38.2409 100.899 38.2409C99.2287 38.2409 98.6387 39.3115 98.6387 41.4484C98.6387 43.4725 99.1853 44.6472 100.773 44.6472C102.331 44.6472 103.085 43.4379 103.085 41.2793Z" fill="#16255F"/>
<path d="M116.383 43.9927C116.383 45.0026 116.465 46.4763 116.526 46.732H113.719C113.637 46.524 113.576 45.9649 113.572 45.6961C113.186 46.2899 112.466 46.9791 110.587 46.9791C108.027 46.9791 106.947 45.2973 106.947 43.6546C106.947 41.2403 108.886 40.1264 112.001 40.1264C112.518 40.1264 113.16 40.1264 113.515 40.1264V39.4762C113.515 38.722 113.242 37.9808 111.88 37.9808C110.639 37.9808 110.366 38.5053 110.231 39.2768H107.437C107.598 37.3913 108.765 35.8699 111.988 35.8873C114.83 35.9046 116.379 37.0142 116.379 39.5369V43.9927H116.383ZM113.52 41.9078C113.272 41.9078 112.708 41.9078 112.322 41.9078C110.552 41.9078 109.897 42.4496 109.897 43.4682C109.897 44.2354 110.37 44.8812 111.424 44.8812C113.29 44.8812 113.52 43.5852 113.52 42.1852V41.9078V41.9078Z" fill="#16255F"/>
<path d="M117.498 36.13H119.134V33.2606H122.071V36.13H124.149V38.3362H122.071V43.5679C122.071 44.3741 122.318 44.6862 123.194 44.6862C123.359 44.6862 123.645 44.6819 123.862 44.6515V46.6714C123.281 46.8708 122.478 46.8751 121.888 46.8751C119.819 46.8751 119.134 45.7698 119.134 43.9147V38.3362H117.498V36.13Z" fill="#16255F"/>
<path d="M125.459 31.7825H128.396V34.4005H125.459V31.7825ZM125.459 36.13H128.396V46.732H125.459V36.13Z" fill="#16255F"/>
<path d="M139.324 43.9927C139.324 45.0026 139.406 46.4763 139.467 46.732H136.66C136.578 46.524 136.517 45.9649 136.513 45.6961C136.127 46.2899 135.407 46.9791 133.528 46.9791C130.968 46.9791 129.893 45.2973 129.893 43.6546C129.893 41.2403 131.832 40.1264 134.947 40.1264C135.463 40.1264 136.105 40.1264 136.461 40.1264V39.4762C136.461 38.722 136.187 37.9808 134.825 37.9808C133.584 37.9808 133.315 38.5053 133.177 39.2768H130.383C130.543 37.3913 131.71 35.8699 134.934 35.8873C137.775 35.9046 139.324 37.0142 139.324 39.5369V43.9927V43.9927ZM136.461 41.9078C136.213 41.9078 135.649 41.9078 135.263 41.9078C133.493 41.9078 132.838 42.4496 132.838 43.4682C132.838 44.2354 133.311 44.8812 134.365 44.8812C136.231 44.8812 136.461 43.5852 136.461 42.1852V41.9078V41.9078Z" fill="#16255F"/>
<path d="M141.467 46.732V31.7782H144.404V46.732H141.467Z" fill="#16255F"/>
</svg>
