<svg width="107" height="44" viewBox="0 0 107 44" fill="none" xmlns="http://www.w3.org/2000/svg">
<path d="M39.6816 12.6451H47.7991C53.36 12.7085 54.6102 17.4856 54.6102 21.7097C54.6102 30.67 50.0343 30.5794 47.7991 30.5794H39.6816V12.6451V12.6451ZM47.4933 27.2663C50.403 27.2663 51.0012 24.6239 51.0012 21.7029C51.0012 17.5943 49.5823 15.9514 47.4933 15.9514H43.2884V27.2663H47.4933Z" fill="#101010"/>
<path d="M61.577 12.7085H65.7279L71.8397 30.5748H68.017L66.5622 26.5139H60.365L58.809 30.5658H54.9863L61.577 12.7085ZM65.665 23.4365L63.621 17.3473L61.3724 23.4365H65.6448H65.665Z" fill="#101010"/>
<path d="M73.4961 17.3542C73.4961 14.7073 74.5529 12.6157 78.1148 12.6157C79.7315 12.6157 84.3906 12.8718 86.7135 13.2955V15.9605C86.7135 15.9605 81.8812 15.7792 78.6589 15.7792C77.4334 15.7792 77.1051 16.561 77.1051 17.4086V18.7433C77.1051 20.1189 77.7055 20.1461 78.6589 20.1461H83.2933C86.4414 20.1461 87.5544 22.1675 87.5544 24.6784V26.4346C87.5544 30.0491 85.407 30.8854 83.2933 30.8854C81.8137 30.8854 75.3872 30.7041 74.1797 30.1511V27.5519C74.1797 27.5519 79.4572 27.6901 82.531 27.6901C83.6329 27.6901 83.9454 26.3712 83.9454 26.3712V24.7849C83.9454 23.8784 83.5946 23.4456 82.531 23.4456H78.0046C74.7441 23.4456 73.4961 21.9635 73.4961 18.9564V17.3474V17.3542Z" fill="#101010"/>
<path d="M90.166 12.7085H93.6649V20.2299H95.6077L100.723 12.7085H104.921L98.7715 21.798L104.921 30.6065H100.726L95.5537 23.4297H93.6716V30.6065H90.166V12.704V12.7085Z" fill="#101010"/>
<path d="M34.7532 18.1881C34.7787 17.9116 34.8004 17.6352 34.8184 17.3587C35.1244 12.5929 34.1749 7.83019 32.0661 3.55332L30.5325 0.453232L29.822 3.85245C29.0027 7.74545 27.2623 11.3813 24.7488 14.4506C22.2353 17.5199 19.0232 19.9317 15.3859 21.4808L14.3313 21.934L14.7315 23.0173C16.0261 26.5091 16.5115 30.2529 16.1504 33.9627C15.9619 35.9626 15.533 37.9319 14.8732 39.8275L14.0547 42.1503L16.3663 41.3844C21.3363 39.7371 25.7223 36.6658 28.9878 32.5461C32.2533 28.4265 34.2568 23.4371 34.7532 18.1881V18.1881ZM19.0736 37.618L17.8414 38.2503L18.1112 36.8906C18.2876 35.9914 18.419 35.0838 18.5047 34.1712C18.8427 30.6712 18.4974 27.1382 17.4883 23.7719L17.3242 23.2257L17.8301 22.9719C23.4682 20.1269 27.9423 15.3854 30.4786 9.56767L31.2678 7.75476L31.7378 9.67645C32.4075 12.3815 32.6121 15.1822 32.3427 17.9569C31.9615 22.0977 30.5444 26.0733 28.2237 29.5118C25.9031 32.9504 22.7549 35.7394 19.0736 37.618V37.618Z" fill="url(#paint0_linear)"/>
<path d="M29.0183 19.5206C29.947 17.4539 30.9116 12.3211 30.8509 11.9381C29.9056 13.7467 28.7703 15.4478 27.4645 17.012C27.2734 17.5196 27.0733 18.025 26.8484 18.5235C25.238 22.1083 22.8001 25.2528 19.7383 27.6946C19.8657 28.6222 19.9459 29.5559 19.9789 30.4956C23.9118 27.7179 27.0334 23.9279 29.0183 19.5206V19.5206Z" fill="url(#paint1_linear)"/>
<path d="M14.8905 30.7018C12.6916 31.737 10.3522 32.4374 7.94907 32.7799L6.58191 32.9748L7.27448 31.7714C7.72978 30.9816 8.14554 30.1693 8.52021 29.3376C9.96758 26.1379 10.7789 22.6835 10.9082 19.1694L10.9285 18.6006L11.4884 18.5258C15.8699 17.9295 20.0393 16.2588 23.6309 13.6604C25.4835 11.4249 26.9037 8.85909 27.8178 6.09599C25.7155 9.03538 22.9972 11.4727 19.8558 13.235C16.7144 14.9973 13.2267 16.0416 9.64002 16.2937L8.49773 16.373L8.52696 17.5287C8.62584 21.2549 7.87825 24.9546 6.34131 28.345C5.51548 30.1784 4.47118 31.9035 3.23148 33.4824L1.72266 35.4063L4.15566 35.4381C7.82237 35.4823 11.4591 34.7681 14.8411 33.3396C14.9063 32.462 14.9228 31.5813 14.8905 30.7018V30.7018Z" fill="url(#paint2_linear)"/>
<defs>
<linearGradient id="paint0_linear" x1="14.561" y1="20.2192" x2="34.1239" y2="22.9162" gradientUnits="userSpaceOnUse">
<stop offset="0.01" stop-color="#C7422F"/>
<stop offset="0.37" stop-color="#D46E43"/>
<stop offset="1" stop-color="#EEB575"/>
</linearGradient>
<linearGradient id="paint1_linear" x1="20.7056" y1="20.5649" x2="29.5168" y2="21.7797" gradientUnits="userSpaceOnUse">
<stop offset="0.21" stop-color="#CF603B"/>
<stop offset="1" stop-color="#EEB575"/>
</linearGradient>
<linearGradient id="paint2_linear" x1="3862.24" y1="5013.36" x2="6397.65" y2="5013.36" gradientUnits="userSpaceOnUse">
<stop offset="0.21" stop-color="#CF603B"/>
<stop offset="1" stop-color="#EEB575"/>
</linearGradient>
</defs>
</svg>
