<svg width="135" height="55" viewBox="0 0 135 55" fill="none" xmlns="http://www.w3.org/2000/svg">
<path d="M50.0732 16.1526H60.4424C67.5457 16.2336 69.1427 22.3357 69.1427 27.7315C69.1427 39.1773 63.2975 39.0615 60.4424 39.0615H50.0732V16.1526ZM60.0518 34.8294C63.7686 34.8294 64.5326 31.4542 64.5326 27.7228C64.5326 22.4747 62.7202 20.376 60.0518 20.376H54.6805V34.8294H60.0518Z" fill="white"/>
<path d="M78.0419 16.2336H83.3442L91.1512 39.0557H86.2682L84.4098 33.8684H76.4937L74.506 39.0442H69.623L78.0419 16.2336ZM83.2638 29.9373L80.6528 22.1592L77.7805 29.9373H83.2379H83.2638Z" fill="white"/>
<path d="M93.2676 22.1679C93.2676 18.7869 94.6176 16.1151 99.1674 16.1151C101.233 16.1151 107.184 16.4422 110.151 16.9835V20.3877C110.151 20.3877 103.979 20.1561 99.8625 20.1561C98.2971 20.1561 97.8777 21.1548 97.8777 22.2374V23.9424C97.8777 25.6995 98.6446 25.7343 99.8625 25.7343H105.782C109.804 25.7343 111.225 28.3164 111.225 31.5237V33.7672C111.225 38.3843 108.482 39.4524 105.782 39.4524C103.892 39.4524 95.6832 39.2208 94.1408 38.5145V35.1943C94.1408 35.1943 100.882 35.3708 104.809 35.3708C106.216 35.3708 106.615 33.6861 106.615 33.6861V31.6598C106.615 30.5019 106.167 29.949 104.809 29.949H99.0266C94.8617 29.949 93.2676 28.0558 93.2676 24.2145V22.1593V22.1679Z" fill="white"/>
<path d="M114.563 16.2336H119.033V25.8413H121.515L128.049 16.2336H133.412L125.556 27.8444L133.412 39.0963H128.052L121.446 29.9286H119.041V39.0963H114.563V16.2278V16.2336Z" fill="white"/>
<path d="M43.7778 23.2331C43.8103 22.88 43.8381 22.5268 43.8611 22.1737C44.252 16.0859 43.0391 10.0021 40.3453 4.53892L38.3864 0.578918L37.4787 4.92102C36.4323 9.89387 34.2091 14.5383 30.9984 18.459C27.7877 22.3796 23.6846 25.4604 19.0383 27.4392L17.6912 28.0181L18.2025 29.4018C19.8562 33.8622 20.4761 38.6446 20.0149 43.3834C19.7741 45.938 19.2263 48.4536 18.3834 50.875L17.3379 53.8421L20.2907 52.8636C26.6393 50.7594 32.2419 46.8362 36.4132 41.5738C40.5845 36.3115 43.1437 29.9381 43.7778 23.2331ZM23.749 48.0526L22.1749 48.8602L22.5196 47.1234C22.745 45.9747 22.9127 44.8154 23.0223 43.6497C23.454 39.1788 23.0129 34.6659 21.724 30.3658L21.5143 29.6681L22.1606 29.3439C29.3625 25.7097 35.0777 19.6531 38.3175 12.2215L39.3257 9.90576L39.926 12.3605C40.7815 15.8159 41.0428 19.3935 40.6986 22.9379C40.2118 28.2272 38.4015 33.3055 35.4372 37.6979C32.4729 42.0902 28.4514 45.6529 23.749 48.0526Z" fill="url(#paint0_linear)"/>
<path d="M36.4528 24.9353C37.6391 22.2953 38.8713 15.7387 38.7937 15.2495C37.5862 17.5598 36.136 19.7327 34.468 21.7308C34.2238 22.3792 33.9682 23.0248 33.681 23.6616C31.6239 28.2407 28.5098 32.2574 24.5986 35.3766C24.7614 36.5615 24.8638 37.7542 24.906 38.9545C29.9298 35.4063 33.9173 30.565 36.4528 24.9353Z" fill="url(#paint1_linear)"/>
<path d="M18.4064 39.218C15.5974 40.5404 12.6092 41.4349 9.53945 41.8725L7.79306 42.1214L8.67774 40.5843C9.25933 39.5754 9.79042 38.5378 10.269 37.4753C12.1179 33.3881 13.1542 28.9755 13.3194 24.4867L13.3453 23.7601L14.0605 23.6646C19.6573 22.9028 24.9832 20.7687 29.5711 17.4496C31.9377 14.594 33.7518 11.3165 34.9194 7.78693C32.234 11.5417 28.7617 14.655 24.7489 16.9062C20.7361 19.1573 16.281 20.4912 11.6994 20.8132L10.2403 20.9146L10.2776 22.3909C10.4039 27.1506 9.44899 31.8765 7.48572 36.2075C6.43082 38.5493 5.09686 40.753 3.51328 42.7698L1.58594 45.2275L4.69381 45.268C9.3776 45.3244 14.0231 44.4121 18.3432 42.5875C18.4265 41.4664 18.4476 40.3414 18.4064 39.218Z" fill="url(#paint2_linear)"/>
<defs>
<linearGradient id="paint0_linear" x1="17.9846" y1="25.8276" x2="42.974" y2="29.2727" gradientUnits="userSpaceOnUse">
<stop offset="0.01" stop-color="#C7422F"/>
<stop offset="0.37" stop-color="#D46E43"/>
<stop offset="1" stop-color="#EEB575"/>
</linearGradient>
<linearGradient id="paint1_linear" x1="25.8342" y1="26.2693" x2="37.0895" y2="27.821" gradientUnits="userSpaceOnUse">
<stop offset="0.21" stop-color="#CF603B"/>
<stop offset="1" stop-color="#EEB575"/>
</linearGradient>
<linearGradient id="paint2_linear" x1="4932.94" y1="6403.98" x2="8171.63" y2="6403.98" gradientUnits="userSpaceOnUse">
<stop offset="0.21" stop-color="#CF603B"/>
<stop offset="1" stop-color="#EEB575"/>
</linearGradient>
</defs>
</svg>
