<?xml version="1.0" encoding="UTF-8" standalone="no"?>
<!DOCTYPE svg PUBLIC "-//W3C//DTD SVG 1.1//EN"
 "http://www.w3.org/Graphics/SVG/1.1/DTD/svg11.dtd">
<!-- Generated by graphviz version 2.38.0 (20140413.2041)
 -->
<!-- Title: G Pages: 1 -->
<svg width="1243pt" height="766pt"
 viewBox="0.00 0.00 1242.52 765.87" xmlns="http://www.w3.org/2000/svg" xmlns:xlink="http://www.w3.org/1999/xlink">
<g id="graph0" class="graph" transform="scale(1 1) rotate(0) translate(4 761.873)">
<title>G</title>
<polygon fill="white" stroke="none" points="-4,4 -4,-761.873 1238.52,-761.873 1238.52,4 -4,4"/>
<!-- xarray_spatial -->
<g id="node1" class="node"><title>xarray_spatial</title>
<ellipse fill="#90ee90" stroke="black" cx="751.937" cy="-639.672" rx="118.403" ry="118.403"/>
<text text-anchor="start" x="688.578" y="-644.672" font-family="Helvetica,sans-Serif" font-weight="bold" font-size="20.00">Xarray&#45;Spatial</text>
<text text-anchor="start" x="676.356" y="-624.672" font-family="Helvetica,sans-Serif" font-size="20.00">(Raster Analysis)</text>
</g>
<!-- datashader -->
<g id="node2" class="node"><title>datashader</title>
<ellipse fill="aquamarine" stroke="black" cx="609.937" cy="-460.014" rx="113.807" ry="25.4118"/>
<text text-anchor="start" x="573.748" y="-463.814" font-family="Helvetica,sans-Serif" font-weight="bold" font-size="14.00">Datashader</text>
<text text-anchor="start" x="537.572" y="-449.814" font-family="Helvetica,sans-Serif" font-size="14.00">(Rasterization Pipeline)</text>
</g>
<!-- xarray_spatial&#45;&gt;datashader -->
<g id="edge1" class="edge"><title>xarray_spatial&#45;&gt;datashader</title>
<path fill="none" stroke="black" d="M678.442,-546.721C663.139,-527.575 647.991,-508.624 635.846,-493.429"/>
<polygon fill="black" stroke="black" points="638.403,-491.023 629.426,-485.397 632.936,-495.393 638.403,-491.023"/>
</g>
<!-- numba -->
<g id="node3" class="node"><title>numba</title>
<ellipse fill="aquamarine" stroke="black" cx="684.937" cy="-286.191" rx="73.6766" ry="25.4118"/>
<text text-anchor="start" x="662.372" y="-289.991" font-family="Helvetica,sans-Serif" font-weight="bold" font-size="14.00">Numba</text>
<text text-anchor="start" x="640.726" y="-275.991" font-family="Helvetica,sans-Serif" font-size="14.00">(JIT Compiler)</text>
</g>
<!-- xarray_spatial&#45;&gt;numba -->
<g id="edge2" class="edge"><title>xarray_spatial&#45;&gt;numba</title>
<path fill="none" stroke="black" d="M745.517,-521.435C742.718,-492.829 738.701,-462.441 732.937,-434.558 724.691,-394.667 709.412,-350.421 698.302,-320.921"/>
<polygon fill="black" stroke="black" points="701.546,-319.604 694.71,-311.509 695.006,-322.1 701.546,-319.604"/>
</g>
<!-- xarray -->
<g id="node4" class="node"><title>xarray</title>
<ellipse fill="aquamarine" stroke="black" cx="880.937" cy="-373.103" rx="91.7914" ry="25.4118"/>
<text text-anchor="start" x="860.32" y="-376.903" font-family="Helvetica,sans-Serif" font-weight="bold" font-size="14.00">Xarray</text>
<text text-anchor="start" x="824.134" y="-362.903" font-family="Helvetica,sans-Serif" font-size="14.00">(Labeled&#45;Ndarray)</text>
</g>
<!-- xarray_spatial&#45;&gt;xarray -->
<g id="edge3" class="edge"><title>xarray_spatial&#45;&gt;xarray</title>
<path fill="none" stroke="black" d="M803.478,-532.966C825.292,-488.226 849.17,-439.255 864.565,-407.682"/>
<polygon fill="black" stroke="black" points="867.822,-408.988 869.058,-398.465 861.53,-405.92 867.822,-408.988"/>
</g>
<!-- datashader&#45;&gt;numba -->
<g id="edge9" class="edge"><title>datashader&#45;&gt;numba</title>
<path fill="none" stroke="black" d="M620.683,-434.396C633.696,-404.583 655.679,-354.221 670.25,-320.839"/>
<polygon fill="black" stroke="black" points="673.54,-322.051 674.333,-311.486 667.125,-319.251 673.54,-322.051"/>
</g>
<!-- datashader&#45;&gt;xarray -->
<g id="edge10" class="edge"><title>datashader&#45;&gt;xarray</title>
<path fill="none" stroke="black" d="M674.161,-438.891C715.69,-425.879 769.708,-408.954 812.118,-395.666"/>
<polygon fill="black" stroke="black" points="813.309,-398.96 821.805,-392.63 811.216,-392.28 813.309,-398.96"/>
</g>
<!-- dask -->
<g id="node8" class="node"><title>dask</title>
<g id="a_node8"><a xlink:href="https://dask.pydata.org" xlink:title="&lt;b&gt;Dask&lt;/b&gt;&lt;br /&gt;(Distributed&#45;Ndarray)">
<ellipse fill="aquamarine" stroke="black" cx="880.937" cy="-286.191" rx="103.96" ry="25.4118"/>
<text text-anchor="start" x="864.989" y="-289.991" font-family="Helvetica,sans-Serif" font-weight="bold" font-size="14.00">Dask</text>
<text text-anchor="start" x="815.589" y="-275.991" font-family="Helvetica,sans-Serif" font-size="14.00">(Distributed&#45;Ndarray)</text>
</a>
</g>
</g>
<!-- datashader&#45;&gt;dask -->
<g id="edge11" class="edge"><title>datashader&#45;&gt;dask</title>
<path fill="none" stroke="black" d="M644.832,-435.56C679.011,-412.729 732.695,-377.243 779.937,-347.647 797.192,-336.837 816.314,-325.284 833.237,-315.204"/>
<polygon fill="black" stroke="black" points="835.055,-318.195 841.864,-310.079 831.479,-312.177 835.055,-318.195"/>
</g>
<!-- pandas -->
<g id="node9" class="node"><title>pandas</title>
<ellipse fill="aquamarine" stroke="black" cx="640.937" cy="-199.279" rx="74.0726" ry="25.4118"/>
<text text-anchor="start" x="617.196" y="-203.079" font-family="Helvetica,sans-Serif" font-weight="bold" font-size="14.00">Pandas</text>
<text text-anchor="start" x="596.586" y="-189.079" font-family="Helvetica,sans-Serif" font-size="14.00">(Tabular Data)</text>
</g>
<!-- datashader&#45;&gt;pandas -->
<g id="edge12" class="edge"><title>datashader&#45;&gt;pandas</title>
<path fill="none" stroke="black" d="M603.944,-434.281C595.802,-396.135 584.172,-321.047 601.937,-260.735 604.849,-250.851 609.934,-241.058 615.49,-232.325"/>
<polygon fill="black" stroke="black" points="618.431,-234.224 621.139,-223.981 612.635,-230.3 618.431,-234.224"/>
</g>
<!-- spatialpandas -->
<g id="node10" class="node"><title>spatialpandas</title>
<ellipse fill="aquamarine" stroke="black" cx="463.937" cy="-373.103" rx="99.7454" ry="25.4118"/>
<text text-anchor="start" x="418.793" y="-376.903" font-family="Helvetica,sans-Serif" font-weight="bold" font-size="14.00">SpatialPandas</text>
<text text-anchor="start" x="401.317" y="-362.903" font-family="Helvetica,sans-Serif" font-size="14.00">(Geometry&#45;Ndarray)</text>
</g>
<!-- datashader&#45;&gt;spatialpandas -->
<g id="edge13" class="edge"><title>datashader&#45;&gt;spatialpandas</title>
<path fill="none" stroke="black" d="M570.428,-436.036C552.274,-425.478 530.594,-412.869 511.547,-401.792"/>
<polygon fill="black" stroke="black" points="513.124,-398.66 502.721,-396.658 509.605,-404.711 513.124,-398.66"/>
</g>
<!-- holoviews -->
<g id="node11" class="node"><title>holoviews</title>
<ellipse fill="lemonchiffon" stroke="black" cx="225.937" cy="-373.103" rx="120.184" ry="25.4118"/>
<text text-anchor="start" x="192.992" y="-376.903" font-family="Helvetica,sans-Serif" font-weight="bold" font-size="14.00">HoloViews</text>
<text text-anchor="start" x="149.019" y="-362.903" font-family="Helvetica,sans-Serif" font-size="14.00">(Advanced Visualization)</text>
</g>
<!-- datashader&#45;&gt;holoviews -->
<g id="edge14" class="edge"><title>datashader&#45;&gt;holoviews</title>
<path fill="none" stroke="black" stroke-dasharray="5,2" d="M531.303,-441.626C469.003,-427.85 381.894,-408.588 316.65,-394.161"/>
<polygon fill="black" stroke="black" points="317.301,-390.721 306.781,-391.979 315.79,-397.556 317.301,-390.721"/>
</g>
<!-- numpy -->
<g id="node5" class="node"><title>numpy</title>
<ellipse fill="aquamarine" stroke="black" cx="742.937" cy="-112.368" rx="53.232" ry="25.4118"/>
<text text-anchor="start" x="720.765" y="-116.168" font-family="Helvetica,sans-Serif" font-weight="bold" font-size="14.00">Numpy</text>
<text text-anchor="start" x="713.379" y="-102.168" font-family="Helvetica,sans-Serif" font-size="14.00">(Ndarray)</text>
</g>
<!-- numba&#45;&gt;numpy -->
<g id="edge4" class="edge"><title>numba&#45;&gt;numpy</title>
<path fill="none" stroke="black" d="M703.462,-261.412C710.912,-250.738 718.912,-237.656 723.937,-224.735 733.513,-200.117 738.272,-170.58 740.632,-148.113"/>
<polygon fill="black" stroke="black" points="744.129,-148.302 741.582,-138.018 737.16,-147.645 744.129,-148.302"/>
</g>
<!-- xarray&#45;&gt;numpy -->
<g id="edge7" class="edge"><title>xarray&#45;&gt;numpy</title>
<path fill="none" stroke="black" d="M941.753,-353.926C961.966,-344.666 982.274,-331.115 993.937,-311.647 1005.57,-292.236 1005.18,-280.372 993.937,-260.735 952.259,-187.934 859.086,-147.582 798.73,-128.208"/>
<polygon fill="black" stroke="black" points="799.559,-124.8 788.97,-125.165 797.475,-131.483 799.559,-124.8"/>
</g>
<!-- rasterio -->
<g id="node6" class="node"><title>rasterio</title>
<ellipse fill="lemonchiffon" stroke="black" cx="1137.94" cy="-286.191" rx="96.6714" ry="25.4118"/>
<text text-anchor="start" x="1111.87" y="-289.991" font-family="Helvetica,sans-Serif" font-weight="bold" font-size="14.00">Rasterio</text>
<text text-anchor="start" x="1077.64" y="-275.991" font-family="Helvetica,sans-Serif" font-size="14.00">(Python Raster I/O)</text>
</g>
<!-- xarray&#45;&gt;rasterio -->
<g id="edge5" class="edge"><title>xarray&#45;&gt;rasterio</title>
<path fill="none" stroke="black" stroke-dasharray="5,2" d="M938.293,-353.152C977.189,-340.301 1028.78,-323.255 1069.78,-309.71"/>
<polygon fill="black" stroke="black" points="1071.02,-312.985 1079.42,-306.524 1068.83,-306.338 1071.02,-312.985"/>
</g>
<!-- xarray&#45;&gt;dask -->
<g id="edge8" class="edge"><title>xarray&#45;&gt;dask</title>
<path fill="none" stroke="black" d="M880.937,-347.543C880.937,-339.534 880.937,-330.485 880.937,-321.877"/>
<polygon fill="black" stroke="black" points="884.437,-321.696 880.937,-311.696 877.437,-321.696 884.437,-321.696"/>
</g>
<!-- gdal -->
<g id="node7" class="node"><title>gdal</title>
<ellipse fill="lemonchiffon" stroke="black" cx="1137.94" cy="-199.279" rx="94.2535" ry="25.4118"/>
<text text-anchor="start" x="1118.88" y="-203.079" font-family="Helvetica,sans-Serif" font-weight="bold" font-size="14.00">GDAL</text>
<text text-anchor="start" x="1079.2" y="-189.079" font-family="Helvetica,sans-Serif" font-size="14.00">(C/C++ Raster I/O)</text>
</g>
<!-- rasterio&#45;&gt;gdal -->
<g id="edge6" class="edge"><title>rasterio&#45;&gt;gdal</title>
<path fill="none" stroke="black" stroke-dasharray="5,2" d="M1137.94,-260.631C1137.94,-252.622 1137.94,-243.573 1137.94,-234.965"/>
<polygon fill="black" stroke="black" points="1141.44,-234.784 1137.94,-224.784 1134.44,-234.784 1141.44,-234.784"/>
</g>
<!-- dask&#45;&gt;pandas -->
<g id="edge16" class="edge"><title>dask&#45;&gt;pandas</title>
<path fill="none" stroke="black" d="M823.451,-264.852C786.534,-251.791 738.666,-234.855 701.214,-221.605"/>
<polygon fill="black" stroke="black" points="702.034,-218.182 691.439,-218.147 699.699,-224.782 702.034,-218.182"/>
</g>
<!-- pandas&#45;&gt;numpy -->
<g id="edge15" class="edge"><title>pandas&#45;&gt;numpy</title>
<path fill="none" stroke="black" d="M668.271,-175.524C680.88,-165.029 695.967,-152.469 709.269,-141.395"/>
<polygon fill="black" stroke="black" points="711.837,-143.812 717.283,-134.724 707.358,-138.432 711.837,-143.812"/>
</g>
<!-- spatialpandas&#45;&gt;numba -->
<g id="edge18" class="edge"><title>spatialpandas&#45;&gt;numba</title>
<path fill="none" stroke="black" d="M517.435,-351.548C550.714,-338.762 593.491,-322.326 627.486,-309.265"/>
<polygon fill="black" stroke="black" points="628.747,-312.53 636.826,-305.676 626.236,-305.995 628.747,-312.53"/>
</g>
<!-- spatialpandas&#45;&gt;pandas -->
<g id="edge17" class="edge"><title>spatialpandas&#45;&gt;pandas</title>
<path fill="none" stroke="black" d="M485.29,-347.868C505.982,-324.773 538.601,-289.375 568.937,-260.735 580.22,-250.083 593.051,-239.006 604.726,-229.288"/>
<polygon fill="black" stroke="black" points="607.104,-231.863 612.59,-222.799 602.649,-226.464 607.104,-231.863"/>
</g>
<!-- geopandas -->
<g id="node12" class="node"><title>geopandas</title>
<ellipse fill="lemonchiffon" stroke="black" cx="275.937" cy="-286.191" rx="86.2608" ry="25.4118"/>
<text text-anchor="start" x="239.741" y="-289.991" font-family="Helvetica,sans-Serif" font-weight="bold" font-size="14.00">Geopandas</text>
<text text-anchor="start" x="223.034" y="-275.991" font-family="Helvetica,sans-Serif" font-size="14.00">(GeoDataFrame)</text>
</g>
<!-- spatialpandas&#45;&gt;geopandas -->
<g id="edge19" class="edge"><title>spatialpandas&#45;&gt;geopandas</title>
<path fill="none" stroke="black" stroke-dasharray="5,2" d="M416.497,-350.676C390.517,-338.942 358.189,-324.34 331.088,-312.1"/>
<polygon fill="black" stroke="black" points="332.294,-308.804 321.739,-307.878 329.412,-315.184 332.294,-308.804"/>
</g>
<!-- rtree -->
<g id="node13" class="node"><title>rtree</title>
<ellipse fill="lemonchiffon" stroke="black" cx="439.937" cy="-199.279" rx="108.927" ry="25.4118"/>
<text text-anchor="start" x="420.869" y="-203.079" font-family="Helvetica,sans-Serif" font-weight="bold" font-size="14.00">RTree</text>
<text text-anchor="start" x="371.065" y="-189.079" font-family="Helvetica,sans-Serif" font-size="14.00">(Python Spatial Index)</text>
</g>
<!-- geopandas&#45;&gt;rtree -->
<g id="edge20" class="edge"><title>geopandas&#45;&gt;rtree</title>
<path fill="none" stroke="black" stroke-dasharray="5,2" d="M317.321,-263.764C338.588,-252.753 364.731,-239.217 387.407,-227.477"/>
<polygon fill="black" stroke="black" points="389.289,-230.444 396.56,-222.738 386.07,-224.228 389.289,-230.444"/>
</g>
<!-- fiona -->
<g id="node15" class="node"><title>fiona</title>
<ellipse fill="lemonchiffon" stroke="black" cx="217.937" cy="-199.279" rx="95.4962" ry="25.4118"/>
<text text-anchor="start" x="200.427" y="-203.079" font-family="Helvetica,sans-Serif" font-weight="bold" font-size="14.00">Fiona</text>
<text text-anchor="start" x="158.41" y="-189.079" font-family="Helvetica,sans-Serif" font-size="14.00">(Python Vector I/O)</text>
</g>
<!-- geopandas&#45;&gt;fiona -->
<g id="edge22" class="edge"><title>geopandas&#45;&gt;fiona</title>
<path fill="none" stroke="black" stroke-dasharray="5,2" d="M259.472,-261.086C253.472,-252.302 246.585,-242.22 240.167,-232.824"/>
<polygon fill="black" stroke="black" points="242.974,-230.728 234.444,-224.445 237.194,-234.676 242.974,-230.728"/>
</g>
<!-- shapely -->
<g id="node17" class="node"><title>shapely</title>
<ellipse fill="lemonchiffon" stroke="black" cx="94.9374" cy="-112.368" rx="94.8748" ry="25.4118"/>
<text text-anchor="start" x="69.641" y="-116.168" font-family="Helvetica,sans-Serif" font-weight="bold" font-size="14.00">Shapely</text>
<text text-anchor="start" x="35.8065" y="-102.168" font-family="Helvetica,sans-Serif" font-size="14.00">(Python Geometry)</text>
</g>
<!-- geopandas&#45;&gt;shapely -->
<g id="edge24" class="edge"><title>geopandas&#45;&gt;shapely</title>
<path fill="none" stroke="black" stroke-dasharray="5,2" d="M200.176,-273.912C169.06,-265.448 135.373,-250.638 113.937,-224.735 96.4,-203.542 92.3755,-172.146 92.3216,-148.086"/>
<polygon fill="black" stroke="black" points="95.8237,-148.013 92.5276,-137.943 88.8251,-147.87 95.8237,-148.013"/>
</g>
<!-- libspatialindex -->
<g id="node14" class="node"><title>libspatialindex</title>
<ellipse fill="lemonchiffon" stroke="black" cx="439.937" cy="-112.368" rx="106.509" ry="25.4118"/>
<text text-anchor="start" x="395.965" y="-116.168" font-family="Helvetica,sans-Serif" font-weight="bold" font-size="14.00">libspatialindex</text>
<text text-anchor="start" x="372.627" y="-102.168" font-family="Helvetica,sans-Serif" font-size="14.00">(C/C++ Spatial Index)</text>
</g>
<!-- rtree&#45;&gt;libspatialindex -->
<g id="edge21" class="edge"><title>rtree&#45;&gt;libspatialindex</title>
<path fill="none" stroke="black" stroke-dasharray="5,2" d="M439.937,-173.719C439.937,-165.71 439.937,-156.661 439.937,-148.054"/>
<polygon fill="black" stroke="black" points="443.437,-147.872 439.937,-137.872 436.437,-147.872 443.437,-147.872"/>
</g>
<!-- geos -->
<g id="node16" class="node"><title>geos</title>
<ellipse fill="lemonchiffon" stroke="black" cx="155.937" cy="-25.4558" rx="93.0786" ry="25.4118"/>
<text text-anchor="start" x="135.71" y="-29.2558" font-family="Helvetica,sans-Serif" font-weight="bold" font-size="14.00">GEOS</text>
<text text-anchor="start" x="97.972" y="-15.2558" font-family="Helvetica,sans-Serif" font-size="14.00">(C/C++ Vector I/O)</text>
</g>
<!-- fiona&#45;&gt;geos -->
<g id="edge23" class="edge"><title>fiona&#45;&gt;geos</title>
<path fill="none" stroke="black" stroke-dasharray="5,2" d="M216.877,-173.511C215.161,-150.343 210.672,-115.17 198.937,-86.9117 194.899,-77.1875 189.055,-67.5089 182.97,-58.8384"/>
<polygon fill="black" stroke="black" points="185.609,-56.5193 176.863,-50.5395 179.971,-60.6682 185.609,-56.5193"/>
</g>
<!-- fiona&#45;&gt;shapely -->
<g id="edge26" class="edge"><title>fiona&#45;&gt;shapely</title>
<path fill="none" stroke="black" stroke-dasharray="5,2" d="M184.652,-175.301C169.884,-165.106 152.346,-152.999 136.711,-142.205"/>
<polygon fill="black" stroke="black" points="138.467,-139.165 128.25,-136.364 134.491,-144.926 138.467,-139.165"/>
</g>
<!-- shapely&#45;&gt;geos -->
<g id="edge25" class="edge"><title>shapely&#45;&gt;geos</title>
<path fill="none" stroke="black" stroke-dasharray="5,2" d="M112.254,-87.2624C118.565,-78.4783 125.808,-68.3964 132.558,-59.0004"/>
<polygon fill="black" stroke="black" points="135.585,-60.7849 138.577,-50.6213 129.9,-56.7007 135.585,-60.7849"/>
</g>
</g>
</svg>
