<svg width="206" height="55" viewBox="0 0 206 55" fill="none" xmlns="http://www.w3.org/2000/svg">
<path d="M35.1414 34.133C35.1414 34.133 50.1941 23.078 44.0979 15.928C37.0299 7.63396 17.2173 25.223 15.0527 21.648C12.8881 18.073 32.6344 9.50396 34.7769 8.07396C35.0089 7.91996 35.0751 7.62296 35.0089 7.28196L37.2949 7.01796L35.8703 6.30296L36.2347 4.88396L34.5782 6.17096C33.9597 5.05996 32.8995 3.86096 32.2921 3.44296C30.1385 2.02396 26.1959 2.36496 20.4642 5.22496C14.7324 8.08496 1.43571 17.006 8.23869 27.005C14.3349 35.926 31.8503 20.592 34.7769 23.067C37.2839 25.212 17.9351 38.423 17.9351 38.423C17.9351 38.423 26.1517 38.423 26.1849 38.423C24.7602 41.998 17.9351 52.36 17.9351 52.36L42.7616 34.496C40.1553 34.111 35.1414 34.133 35.1414 34.133ZM28.3936 4.50996C29.2771 4.44396 30.0392 5.12596 30.1054 5.99496C30.1717 6.87496 29.487 7.63396 28.6145 7.69996C27.731 7.76596 26.969 7.08396 26.9027 6.21496C26.8365 5.34596 27.5101 4.57596 28.3936 4.50996Z" fill="#00A3E0"/>
<path d="M75.7048 41.4039C73.6617 37.7849 71.4419 34.2099 69.0675 30.6899C66.6821 27.1589 64.153 23.8259 61.4583 20.7019V41.4149H54.4014V9.78986H60.2214C61.2264 10.7909 62.3418 12.0229 63.5677 13.4859C64.7936 14.9489 66.0305 16.4999 67.3005 18.1609C68.5706 19.8219 69.8295 21.5379 71.0775 23.3199C72.3254 25.1019 73.5071 26.8069 74.6005 28.4569V9.78986H81.7016V41.4039H75.7048Z" fill="#00A3E0"/>
<path d="M109.146 40.5899C107.986 40.9199 106.484 41.2389 104.662 41.5249C102.84 41.8109 100.907 41.9539 98.8861 41.9539C96.843 41.9539 95.1422 41.6789 93.7838 41.1289C92.4255 40.5789 91.3432 39.8089 90.559 38.8299C89.7639 37.8399 89.2007 36.6629 88.8693 35.2989C88.538 33.9349 88.3613 32.4279 88.3613 30.7779V17.4129H95.1864V29.9639C95.1864 32.1529 95.4735 33.7369 96.0589 34.7049C96.6331 35.6839 97.7265 36.1679 99.3057 36.1679C99.7917 36.1679 100.311 36.1459 100.863 36.1019C101.415 36.0579 101.901 36.0029 102.332 35.9369V17.4129H109.157V40.5899H109.146Z" fill="#00A3E0"/>
<path d="M128.792 28.6767C128.792 26.4877 128.505 24.9367 127.942 24.0237C127.378 23.1107 126.407 22.6597 125.037 22.6597C124.606 22.6597 124.165 22.6817 123.712 22.7257C123.259 22.7697 122.806 22.8247 122.387 22.8907V41.4147H115.562V18.2267C116.136 18.0727 116.821 17.9187 117.605 17.7427C118.389 17.5777 119.206 17.4237 120.078 17.2917C120.951 17.1597 121.845 17.0497 122.762 16.9727C123.679 16.8957 124.573 16.8627 125.468 16.8627C127.213 16.8627 128.615 17.0827 129.709 17.5227C130.791 17.9627 131.685 18.4907 132.392 19.0957C133.364 18.3917 134.491 17.8527 135.761 17.4567C137.031 17.0607 138.19 16.8627 139.262 16.8627C141.183 16.8627 142.762 17.1267 143.999 17.6657C145.236 18.1937 146.219 18.9527 146.959 19.9207C147.688 20.8997 148.196 22.0547 148.472 23.3857C148.748 24.7277 148.881 26.2127 148.881 27.8517V41.4037H142.056V28.6767C142.056 26.4877 141.768 24.9367 141.205 24.0237C140.642 23.1107 139.67 22.6597 138.301 22.6597C137.936 22.6597 137.417 22.7477 136.766 22.9347C136.103 23.1217 135.562 23.3417 135.142 23.6167C135.352 24.3207 135.496 25.0577 135.551 25.8277C135.617 26.6087 135.639 27.4337 135.639 28.3137V41.4037H128.814V28.6767H128.792Z" fill="#00A3E0"/>
<path d="M177.44 29.4029C177.44 31.3169 177.153 33.0549 176.59 34.6059C176.026 36.1569 175.209 37.4769 174.138 38.5769C173.067 39.6769 171.752 40.5129 170.195 41.1069C168.638 41.7009 166.871 41.9979 164.883 41.9979C164.055 41.9979 163.194 41.9649 162.299 41.8879C161.393 41.8109 160.51 41.7119 159.637 41.5909C158.765 41.4699 157.937 41.3269 157.142 41.1619C156.346 40.9969 155.64 40.8209 155.032 40.6339V7.09487L161.857 5.99487V17.9519C162.619 17.6219 163.414 17.3579 164.243 17.1709C165.071 16.9839 165.955 16.8959 166.904 16.8959C168.616 16.8959 170.129 17.1929 171.443 17.7869C172.757 18.3809 173.851 19.2279 174.745 20.3169C175.629 21.4169 176.303 22.7259 176.755 24.2659C177.208 25.8169 177.44 27.5219 177.44 29.4029ZM170.471 29.2269C170.471 24.8489 168.848 22.6599 165.612 22.6599C164.905 22.6599 164.21 22.7479 163.525 22.9349C162.84 23.1219 162.277 23.3419 161.857 23.6169V35.9809C162.189 36.0469 162.619 36.0909 163.138 36.1459C163.657 36.1899 164.221 36.2119 164.828 36.2119C166.694 36.2119 168.097 35.5739 169.047 34.2979C170.008 33.0109 170.471 31.3279 170.471 29.2269Z" fill="#00A3E0"/>
<path d="M191.367 16.775C193.377 16.775 195.067 17.006 196.403 17.457C197.75 17.908 198.822 18.568 199.628 19.415C200.434 20.262 201.008 21.296 201.351 22.517C201.682 23.738 201.859 25.091 201.859 26.576V40.722C200.876 40.931 199.517 41.184 197.784 41.47C196.039 41.756 193.94 41.899 191.467 41.899C189.909 41.899 188.496 41.767 187.226 41.492C185.956 41.217 184.862 40.766 183.946 40.15C183.029 39.523 182.322 38.709 181.836 37.708C181.35 36.707 181.107 35.475 181.107 34.012C181.107 32.615 181.395 31.427 181.958 30.448C182.521 29.48 183.283 28.699 184.222 28.116C185.172 27.544 186.254 27.115 187.469 26.862C188.695 26.609 189.954 26.477 191.268 26.477C192.151 26.477 192.935 26.51 193.631 26.587C194.316 26.664 194.879 26.763 195.299 26.884V26.246C195.299 25.091 194.945 24.167 194.25 23.463C193.543 22.759 192.328 22.418 190.583 22.418C189.423 22.418 188.275 22.506 187.148 22.671C186.022 22.836 185.039 23.078 184.222 23.375L183.349 17.897C183.747 17.776 184.244 17.644 184.84 17.512C185.437 17.38 186.088 17.259 186.784 17.149C187.491 17.039 188.231 16.951 189.004 16.874C189.788 16.808 190.572 16.775 191.367 16.775ZM191.908 36.663C192.582 36.663 193.222 36.652 193.83 36.619C194.437 36.586 194.934 36.542 195.299 36.487V31.328C195.023 31.262 194.614 31.207 194.062 31.141C193.51 31.075 193.013 31.053 192.549 31.053C191.908 31.053 191.301 31.086 190.738 31.163C190.174 31.24 189.677 31.383 189.247 31.592C188.816 31.801 188.485 32.098 188.242 32.461C187.999 32.824 187.877 33.286 187.877 33.825C187.877 34.892 188.231 35.629 188.949 36.036C189.677 36.454 190.66 36.663 191.908 36.663Z" fill="#00A3E0"/>
</svg>
