<svg width="163" height="44" viewBox="0 0 163 44" fill="none" xmlns="http://www.w3.org/2000/svg">
<path d="M28.2549 26.721C28.2549 26.721 40.0389 18.0666 35.2665 12.4692C29.7333 5.97623 14.223 19.7458 12.5284 16.9471C10.8339 14.1484 26.2923 7.44017 27.9695 6.32069C28.1511 6.20013 28.203 5.96762 28.1511 5.70067L29.9408 5.494L28.8255 4.93426L29.1108 3.82339L27.8139 4.83092C27.3298 3.96118 26.4998 3.02254 26.0243 2.69531C24.3384 1.58444 21.2519 1.85139 16.7648 4.09035C12.2777 6.3293 1.86834 13.3131 7.19405 21.1408C11.9665 28.1246 25.6784 16.1204 27.9695 18.058C29.9321 19.7372 14.7849 30.0794 14.7849 30.0794C14.7849 30.0794 21.2173 30.0794 21.2432 30.0794C20.1279 32.8781 14.7849 40.99 14.7849 40.99L34.2203 27.0052C32.18 26.7038 28.2549 26.721 28.2549 26.721ZM22.9724 3.53061C23.664 3.47894 24.2606 4.01284 24.3124 4.69314C24.3643 5.38205 23.8283 5.97623 23.1453 6.0279C22.4536 6.07957 21.8571 5.54567 21.8052 4.86537C21.7533 4.18507 22.2807 3.58228 22.9724 3.53061Z" fill="#00A3E0"/>
<path d="M60.0114 32.413C58.412 29.5799 56.6742 26.7812 54.8154 24.0256C52.9479 21.2613 50.9681 18.6521 48.8585 16.2064V32.4216H43.334V7.66397H47.8902C48.677 8.4476 49.5502 9.41208 50.5099 10.5574C51.4695 11.7027 52.4378 12.9169 53.4321 14.2172C54.4263 15.5175 55.4119 16.8609 56.3889 18.2559C57.3659 19.651 58.2909 20.9857 59.1469 22.2774V7.66397H64.706V32.413H60.0114Z" fill="#00A3E0"/>
<path d="M86.1891 31.7758C85.2813 32.0342 84.1055 32.2839 82.679 32.5078C81.2524 32.7317 79.7394 32.8436 78.1573 32.8436C76.5578 32.8436 75.2264 32.6283 74.163 32.1978C73.0996 31.7672 72.2523 31.1644 71.6385 30.398C71.016 29.623 70.575 28.7016 70.3157 27.6338C70.0563 26.5659 69.918 25.3862 69.918 24.0945V13.6317H75.261V23.4572C75.261 25.1709 75.4858 26.4109 75.944 27.1687C76.3936 27.9352 77.2495 28.3141 78.4858 28.3141C78.8662 28.3141 79.2726 28.2968 79.7048 28.2624C80.1371 28.2279 80.5175 28.1849 80.8547 28.1332V13.6317H86.1977V31.7758H86.1891Z" fill="#00A3E0"/>
<path d="M101.57 22.4495C101.57 20.7359 101.346 19.5217 100.905 18.8069C100.464 18.0922 99.7029 17.7391 98.6309 17.7391C98.2937 17.7391 97.9479 17.7564 97.5934 17.7908C97.2389 17.8252 96.8844 17.8683 96.5559 17.92V32.4215H91.2129V14.2688C91.6625 14.1482 92.1985 14.0276 92.8123 13.8899C93.4262 13.7607 94.066 13.6401 94.749 13.5368C95.432 13.4334 96.1323 13.3473 96.8499 13.2871C97.5674 13.2268 98.2677 13.2009 98.968 13.2009C100.334 13.2009 101.432 13.3732 102.288 13.7176C103.135 14.0621 103.836 14.4754 104.389 14.949C105.15 14.3979 106.032 13.976 107.026 13.666C108.02 13.3559 108.928 13.2009 109.766 13.2009C111.271 13.2009 112.507 13.4076 113.475 13.8296C114.444 14.2429 115.213 14.8371 115.792 15.5949C116.363 16.3613 116.761 17.2655 116.977 18.3075C117.193 19.3581 117.297 20.5206 117.297 21.8037V32.4129H111.954V22.4495C111.954 20.7359 111.729 19.5217 111.288 18.8069C110.847 18.0922 110.086 17.7391 109.014 17.7391C108.729 17.7391 108.323 17.808 107.813 17.9544C107.294 18.1008 106.87 18.273 106.542 18.4883C106.706 19.0394 106.818 19.6164 106.862 20.2192C106.913 20.8306 106.931 21.4765 106.931 22.1654V32.4129H101.588V22.4495H101.57Z" fill="#00A3E0"/>
<path d="M139.655 23.018C139.655 24.5164 139.43 25.877 138.99 27.0912C138.549 28.3054 137.909 29.3388 137.07 30.1999C136.232 31.061 135.203 31.7155 133.984 32.1805C132.765 32.6455 131.381 32.878 129.825 32.878C129.177 32.878 128.502 32.8522 127.802 32.7919C127.093 32.7316 126.402 32.6541 125.719 32.5594C125.035 32.4647 124.387 32.3527 123.765 32.2236C123.142 32.0944 122.589 31.9566 122.113 31.8102V5.55419L127.456 4.69305V14.0536C128.053 13.7953 128.675 13.5886 129.324 13.4422C129.972 13.2958 130.664 13.2269 131.407 13.2269C132.747 13.2269 133.932 13.4594 134.961 13.9244C135.99 14.3894 136.845 15.0525 137.546 15.905C138.237 16.7662 138.765 17.7909 139.119 18.9965C139.474 20.2107 139.655 21.5455 139.655 23.018ZM134.2 22.8802C134.2 19.4529 132.929 17.7393 130.396 17.7393C129.842 17.7393 129.298 17.8082 128.762 17.9545C128.226 18.1009 127.785 18.2732 127.456 18.4884V28.1676C127.716 28.2193 128.053 28.2537 128.459 28.2968C128.866 28.3312 129.306 28.3485 129.782 28.3485C131.243 28.3485 132.341 27.849 133.085 26.8501C133.837 25.8425 134.2 24.525 134.2 22.8802Z" fill="#00A3E0"/>
<path d="M150.557 13.1323C152.131 13.1323 153.453 13.3131 154.5 13.6662C155.554 14.0192 156.393 14.5359 157.024 15.199C157.655 15.8621 158.105 16.6715 158.373 17.6274C158.632 18.5833 158.771 19.6425 158.771 20.805V31.8792C158.001 32.0428 156.938 32.2409 155.58 32.4648C154.214 32.6887 152.572 32.8006 150.635 32.8006C149.416 32.8006 148.309 32.6973 147.315 32.482C146.321 32.2667 145.465 31.9136 144.747 31.4314C144.03 30.9406 143.476 30.3033 143.096 29.5197C142.716 28.736 142.525 27.7716 142.525 26.6263C142.525 25.5326 142.75 24.6026 143.191 23.8362C143.632 23.0784 144.229 22.467 144.963 22.0106C145.707 21.5628 146.554 21.2269 147.505 21.0289C148.465 20.8308 149.451 20.7275 150.479 20.7275C151.171 20.7275 151.785 20.7533 152.33 20.8136C152.866 20.8739 153.307 20.9514 153.635 21.0461V20.5466C153.635 19.6425 153.358 18.9191 152.814 18.368C152.26 17.8168 151.309 17.5499 149.943 17.5499C149.036 17.5499 148.136 17.6188 147.255 17.748C146.373 17.8771 145.603 18.0666 144.963 18.2991L144.28 14.0106C144.592 13.9159 144.981 13.8126 145.448 13.7092C145.914 13.6059 146.425 13.5112 146.969 13.425C147.523 13.3389 148.102 13.27 148.707 13.2098C149.321 13.1581 149.935 13.1323 150.557 13.1323ZM150.981 28.7016C151.508 28.7016 152.01 28.693 152.485 28.6672C152.961 28.6413 153.35 28.6069 153.635 28.5638V24.5251C153.419 24.4734 153.099 24.4304 152.667 24.3787C152.234 24.327 151.845 24.3098 151.482 24.3098C150.981 24.3098 150.505 24.3356 150.064 24.3959C149.623 24.4562 149.234 24.5682 148.897 24.7318C148.56 24.8954 148.301 25.1279 148.11 25.4121C147.92 25.6962 147.825 26.0579 147.825 26.4799C147.825 27.3152 148.102 27.8921 148.664 28.2108C149.234 28.538 150.004 28.7016 150.981 28.7016Z" fill="#00A3E0"/>
</svg>
