<svg width="182" height="44" viewBox="0 0 182 44" fill="none" xmlns="http://www.w3.org/2000/svg">
<g clip-path="url(#clip0)">
<path d="M69.969 23.9696C69.969 18.5175 68.4033 15.7184 65.2718 15.5651C64.0258 15.5067 62.8093 15.7038 61.6258 16.16C60.6812 16.4957 60.0454 16.8278 59.7109 17.1635V30.1772C61.714 31.4253 63.4929 32.0056 65.0439 31.9143C68.3261 31.699 69.969 29.0532 69.969 23.9696ZM73.8319 24.1959C73.8319 26.9658 73.1777 29.2649 71.8619 31.0932C70.3954 33.1624 68.3628 34.228 65.7643 34.2864C63.8053 34.3485 61.7875 33.739 59.7109 32.4617V44.2894L56.3516 43.0997V16.846C56.9029 16.1746 57.6122 15.598 58.4723 15.1089C60.4717 13.9521 62.9012 13.3572 65.7606 13.328L65.8084 13.3755C68.4217 13.3426 70.4358 14.4083 71.8508 16.5687C73.1703 18.5503 73.8319 21.0903 73.8319 24.1959Z" fill="#646464"/>
<path d="M94.3615 31.9581C94.3615 35.6732 93.9866 38.246 93.2368 39.6766C92.4833 41.1071 91.0499 42.2494 88.9329 43.0997C87.2164 43.7712 85.3604 44.1361 83.3683 44.1981L82.8133 42.0961C84.8384 41.8224 86.2645 41.5487 87.0915 41.275C88.7197 40.7276 89.837 39.8882 90.4508 38.7642C90.9433 37.8482 91.1859 36.1002 91.1859 33.5128V32.6442C88.8888 33.6806 86.4814 34.1952 83.9637 34.1952C82.3098 34.1952 80.8506 33.6806 79.5936 32.6442C78.1822 31.5165 77.4766 30.086 77.4766 28.3525V14.4703L80.8359 13.328V27.3015C80.8359 28.7941 81.3211 29.9437 82.2914 30.7502C83.2617 31.5567 84.5187 31.9435 86.0587 31.9143C87.5987 31.8815 89.2489 31.2903 91.0021 30.1334V13.8317H94.3615V31.9581Z" fill="#646464"/>
<path d="M107.476 34.104C107.075 34.1368 106.708 34.1514 106.37 34.1514C104.47 34.1514 102.988 33.7025 101.93 32.8011C100.875 31.8998 100.346 30.6553 100.346 29.0678V15.9301H98.0449V13.8317H100.346V8.25908L103.701 7.07303V13.8317H107.476V15.9301H103.701V28.9766C103.701 30.2283 104.04 31.1151 104.716 31.6333C105.297 32.0603 106.219 32.3048 107.476 32.3669V34.104Z" fill="#646464"/>
<path d="M127.815 33.8303H124.456V20.9553C124.456 19.6451 124.147 18.5175 123.533 17.5759C122.824 16.5103 121.839 15.9775 120.575 15.9775C119.035 15.9775 117.109 16.784 114.797 18.397V33.8303H111.438V3.05506L114.797 2.00404V16.0213C116.943 14.4703 119.288 13.693 121.835 13.693C123.614 13.693 125.055 14.2878 126.158 15.4739C127.264 16.6599 127.815 18.1379 127.815 19.9042V33.8303Z" fill="#646464"/>
<path d="M145.67 23.4441C145.67 21.3494 145.27 19.6196 144.472 18.2511C143.524 16.5833 142.05 15.7038 140.058 15.6126C136.375 15.8242 134.537 18.4445 134.537 23.466C134.537 25.7688 134.92 27.692 135.691 29.2357C136.676 31.2027 138.154 32.1734 140.124 32.1406C143.821 32.1114 145.67 29.2138 145.67 23.4441ZM149.349 23.466C149.349 26.4476 148.581 28.9291 147.048 30.9107C145.361 33.1296 143.031 34.2426 140.058 34.2426C137.11 34.2426 134.813 33.1296 133.155 30.9107C131.652 28.9291 130.902 26.4476 130.902 23.466C130.902 20.6633 131.715 18.3058 133.339 16.3862C135.056 14.3499 137.312 13.328 140.102 13.328C142.892 13.328 145.163 14.3499 146.913 16.3862C148.537 18.3058 149.349 20.6633 149.349 23.466Z" fill="#646464"/>
<path d="M168.609 33.8303H165.25V20.2254C165.25 18.7328 164.797 17.5686 163.893 16.7293C162.989 15.8936 161.784 15.4885 160.28 15.5213C158.685 15.5505 157.167 16.0687 155.727 17.0723V33.8303H152.367V16.6599C154.3 15.2622 156.079 14.3499 157.704 13.9229C159.237 13.5251 160.589 13.328 161.754 13.328C162.552 13.328 163.302 13.4047 164.007 13.558C165.327 13.8609 166.4 14.4229 167.227 15.2476C168.149 16.16 168.609 17.2548 168.609 18.5357V33.8303Z" fill="#646464"/>
<path d="M23.1716 3.17828C21.4432 3.18625 19.7926 3.33261 18.3403 3.58778C14.0619 4.33828 13.2851 5.90915 13.2851 8.80608V12.6321H23.3955V13.9074H13.2851H9.49072C6.55234 13.9074 3.97942 15.661 3.17464 18.997C2.24634 22.8208 2.20516 25.2069 3.17464 29.1996C3.89333 32.1715 5.60965 34.2891 8.54802 34.2891H12.0242V29.7027C12.0242 26.3892 14.9116 23.4665 18.3403 23.4665H28.4389C31.2501 23.4665 33.4942 21.1683 33.4942 18.3652V8.80608C33.4942 6.08551 31.1827 4.04184 28.4389 3.58778C26.7021 3.30072 24.9 3.1703 23.1716 3.17828ZM17.704 6.25543C18.7483 6.25543 19.6012 7.11606 19.6012 8.17427C19.6012 9.22872 18.7483 10.0814 17.704 10.0814C16.6559 10.0814 15.8068 9.22872 15.8068 8.17427C15.8068 7.11606 16.6559 6.25543 17.704 6.25543Z" fill="url(#paint0_linear)"/>
<path d="M34.7551 13.9074V18.3652C34.7551 21.8213 31.8041 24.7301 28.439 24.7301H18.3404C15.5742 24.7301 13.2852 27.0808 13.2852 29.8314V39.3905C13.2852 42.111 15.6678 43.7113 18.3404 44.4918C21.5408 45.4261 24.6098 45.595 28.439 44.4918C30.9844 43.76 33.4942 42.2874 33.4942 39.3905V35.5645H23.3956V34.2892H33.4942H38.5495C41.4878 34.2892 42.5828 32.2541 43.6047 29.1996C44.6602 26.055 44.6153 23.0309 43.6047 18.997C42.8785 16.0926 41.4916 13.9074 38.5495 13.9074H34.7551ZM29.0753 38.1152C30.1234 38.1152 30.9725 38.9678 30.9725 40.0223C30.9725 41.0805 30.1234 41.9411 29.0753 41.9411C28.031 41.9411 27.1782 41.0805 27.1782 40.0223C27.1782 38.9678 28.031 38.1152 29.0753 38.1152Z" fill="url(#paint1_linear)"/>
<path d="M175.151 10.8579H175.74V7.19016H177.135V6.75298H173.756V7.19016H175.151V10.8579ZM177.658 10.8579H178.161V7.50811L179.253 10.8575H179.813L180.951 7.51946V10.8579H181.5V6.75298H180.774L179.53 10.2697L178.47 6.75298H177.658V10.8579Z" fill="white"/>
</g>
<defs>
<linearGradient id="paint0_linear" x1="2.46289" y1="3.17793" x2="25.6368" y2="23.0663" gradientUnits="userSpaceOnUse">
<stop stop-color="#5A9FD4"/>
<stop offset="1" stop-color="#306998"/>
</linearGradient>
<linearGradient id="paint1_linear" x1="28.8324" y1="39.7006" x2="20.547" y2="28.0075" gradientUnits="userSpaceOnUse">
<stop stop-color="#FFD43B"/>
<stop offset="1" stop-color="#FFE873"/>
</linearGradient>
<clipPath id="clip0">
<rect width="180.998" height="43.0568" fill="white" transform="translate(0.353516 0.782852)"/>
</clipPath>
</defs>
</svg>
