<svg width="232" height="55" viewBox="0 0 232 55" fill="none" xmlns="http://www.w3.org/2000/svg">
<g clip-path="url(#clip0)">
<path d="M88.924 29.6184C88.924 22.6539 86.924 19.0784 82.9239 18.8826C81.3323 18.808 79.7783 19.0598 78.2665 19.6425C77.0599 20.0713 76.2477 20.4955 75.8205 20.9244V37.5479C78.3792 39.1422 80.6515 39.8834 82.6328 39.7668C86.8254 39.4918 88.924 36.1121 88.924 29.6184ZM93.8584 29.9074C93.8584 33.4456 93.0227 36.3825 91.3419 38.7179C89.4686 41.3611 86.8723 42.7223 83.553 42.7969C81.0506 42.8761 78.4731 42.0976 75.8205 40.4661V55.5745L71.5293 54.0548V20.5189C72.2335 19.6611 73.1397 18.9246 74.2383 18.2999C76.7923 16.8222 79.8956 16.0623 83.5483 16.025L83.6093 16.0856C86.9474 16.0437 89.5202 17.4049 91.3278 20.1646C93.0133 22.6958 93.8584 25.9404 93.8584 29.9074Z" fill="white"/>
<path d="M120.084 39.8228C120.084 44.5683 119.605 47.8548 118.647 49.6821C117.685 51.5095 115.854 52.9686 113.15 54.0548C110.957 54.9125 108.586 55.3787 106.042 55.4579L105.333 52.7728C107.92 52.4232 109.741 52.0736 110.798 51.7239C112.877 51.0247 114.305 49.9525 115.089 48.5167C115.718 47.3467 116.028 45.1137 116.028 41.8086V40.6992C113.093 42.0231 110.018 42.6803 106.802 42.6803C104.689 42.6803 102.826 42.0231 101.22 40.6992C99.4171 39.2587 98.5156 37.4313 98.5156 35.217V17.4841L102.807 16.025V33.8745C102.807 35.7811 103.427 37.2495 104.666 38.2797C105.905 39.31 107.511 39.8041 109.478 39.7668C111.445 39.7249 113.553 38.9697 115.793 37.4919V16.6683H120.084V39.8228Z" fill="white"/>
<path d="M136.835 42.5638C136.324 42.6058 135.854 42.6244 135.422 42.6244C132.995 42.6244 131.103 42.0511 129.751 40.8996C128.403 39.7482 127.727 38.1586 127.727 36.1308V19.3488H124.788V16.6684H127.727V9.55001L132.014 8.03497V16.6684H136.835V19.3488H132.014V36.0142C132.014 37.6132 132.445 38.7459 133.309 39.4079C134.051 39.9533 135.23 40.2656 136.835 40.3449V42.5638Z" fill="white"/>
<path d="M162.817 42.2142H158.526V25.7679C158.526 24.0944 158.132 22.6539 157.348 21.4512C156.441 20.09 155.183 19.4094 153.568 19.4094C151.601 19.4094 149.141 20.4396 146.188 22.5001V42.2142H141.896V2.90249L146.188 1.55994V19.4653C148.929 17.4841 151.925 16.4912 155.178 16.4912C157.451 16.4912 159.291 17.2511 160.7 18.7661C162.113 20.2811 162.817 22.1691 162.817 24.4253V42.2142Z" fill="white"/>
<path d="M185.625 28.9471C185.625 26.2713 185.113 24.0617 184.094 22.3136C182.883 20.1832 181 19.0598 178.456 18.9432C173.751 19.2136 171.404 22.5607 171.404 28.9751C171.404 31.9166 171.892 34.3733 172.878 36.3452C174.136 38.8578 176.024 40.0978 178.54 40.0558C183.263 40.0185 185.625 36.3172 185.625 28.9471ZM190.325 28.9751C190.325 32.7837 189.343 35.9536 187.386 38.4849C185.231 41.3191 182.254 42.7409 178.456 42.7409C174.69 42.7409 171.756 41.3191 169.639 38.4849C167.719 35.9536 166.761 32.7837 166.761 28.9751C166.761 25.3949 167.798 22.3835 169.873 19.9315C172.066 17.3303 174.949 16.025 178.512 16.025C182.076 16.025 184.977 17.3303 187.212 19.9315C189.287 22.3835 190.325 25.3949 190.325 28.9751Z" fill="white"/>
<path d="M214.926 42.2142H210.634V24.8355C210.634 22.9289 210.057 21.4419 208.902 20.3697C207.747 19.3022 206.207 18.7847 204.287 18.8267C202.249 18.864 200.31 19.5259 198.47 20.8079V42.2142H194.179V20.2811C196.648 18.4957 198.921 17.3303 200.996 16.7849C202.954 16.2768 204.681 16.025 206.17 16.025C207.188 16.025 208.146 16.1229 209.048 16.3187C210.733 16.7056 212.104 17.4235 213.16 18.4771C214.339 19.6425 214.926 21.041 214.926 22.6772V42.2142Z" fill="white"/>
<path d="M29.1463 3.05989C26.9385 3.07007 24.8301 3.25704 22.9749 3.58299C17.5097 4.54166 16.5174 6.54825 16.5174 10.2487V15.136H29.4323V16.765H16.5174H11.6706C7.91716 16.765 4.63055 19.0051 3.60254 23.2664C2.41674 28.1509 2.36414 31.1989 3.60254 36.299C4.52057 40.0954 6.71297 42.8004 10.4664 42.8004H14.9068V36.9417C14.9068 32.7091 18.5951 28.9757 22.9749 28.9756H35.8747C39.4656 28.9756 42.3322 26.04 42.3322 22.4593V10.2487C42.3322 6.77354 39.3795 4.16298 35.8747 3.58299C33.6561 3.21629 31.3542 3.0497 29.1463 3.05989ZM22.1621 6.99059C23.4961 6.99059 24.5855 8.08995 24.5855 9.44168C24.5855 10.7886 23.4961 11.8778 22.1621 11.8778C20.8233 11.8778 19.7386 10.7886 19.7386 9.44168C19.7386 8.08995 20.8233 6.99059 22.1621 6.99059Z" fill="url(#paint0_linear)"/>
<path d="M43.9429 16.7651V22.4594C43.9429 26.8741 40.1734 30.5898 35.8749 30.5898H22.975C19.4415 30.5898 16.5176 33.5926 16.5176 37.1061V49.3167C16.5176 52.7919 19.5611 54.836 22.975 55.833C27.0632 57.0266 30.9835 57.2423 35.8749 55.833C39.1262 54.8983 42.3323 53.0172 42.3323 49.3167V44.4295H29.4325V42.8004H42.3323H48.7898C52.5432 42.8004 53.9419 40.2009 55.2472 36.299C56.5956 32.2822 56.5382 28.4193 55.2472 23.2664C54.3196 19.5564 52.548 16.7651 48.7898 16.7651H43.9429ZM36.6877 47.6876C38.0265 47.6876 39.1111 48.7768 39.1111 50.1238C39.1111 51.4755 38.0265 52.5749 36.6877 52.5749C35.3537 52.5749 34.2643 51.4755 34.2643 50.1238C34.2643 48.7768 35.3537 47.6876 36.6877 47.6876Z" fill="url(#paint1_linear)"/>
<path d="M223.282 12.8697H224.035V8.18455H225.817V7.6261H221.5V8.18455H223.282V12.8697ZM226.484 12.8697H227.127V8.59069L228.522 12.8692H229.237L230.691 8.60519V12.8697H231.392V7.6261H230.465L228.876 12.1183L227.521 7.6261H226.484V12.8697Z" fill="white"/>
</g>
<defs>
<linearGradient id="paint0_linear" x1="2.69336" y1="3.05945" x2="32.2953" y2="28.4644" gradientUnits="userSpaceOnUse">
<stop stop-color="#5A9FD4"/>
<stop offset="1" stop-color="#306998"/>
</linearGradient>
<linearGradient id="paint1_linear" x1="36.3773" y1="49.7129" x2="25.7937" y2="34.7763" gradientUnits="userSpaceOnUse">
<stop stop-color="#FFD43B"/>
<stop offset="1" stop-color="#FFE873"/>
</linearGradient>
<clipPath id="clip0">
<rect width="231.204" height="55" fill="white"/>
</clipPath>
</defs>
</svg>
