<svg width="197" height="277" viewBox="0 0 197 277" fill="none" xmlns="http://www.w3.org/2000/svg">
<path d="M68.7092 74.252C62.422 63.0055 62.5146 43.8531 52.4064 43.8531C38.8362 43.8531 42.854 78.4362 26.5859 81.9615H57.7211C62.4567 81.0831 65.9535 78.2281 68.7092 74.252Z" fill="#DE9F3E"/>
<path d="M171.227 55.192C160.759 55.192 163.654 78.8523 151.531 81.8344L190.783 81.6263C178.162 78.6558 181.694 55.192 171.227 55.192Z" fill="#9C326F"/>
<path d="M81.2256 81.9616C109.454 81.9616 101.569 161.588 122.052 161.588C142.535 161.588 133.932 81.7766 163.203 81.7766C162.138 81.7766 82.2214 81.9616 81.2256 81.9616Z" fill="#9C326F"/>
<path d="M23.598 61.1908C14.4276 61.1908 17.0792 79.8463 6.26465 81.9615H40.8502C29.5842 79.8348 32.7567 61.1908 23.598 61.1908Z" fill="#16255F"/>
<path d="M2.81445 81.9615C21.734 81.9615 16.5468 114.499 30.2675 114.499C43.9883 114.499 38.1063 81.9615 57.7206 81.9615C56.6091 81.9615 3.87969 81.9615 2.81445 81.9615Z" fill="#DE9F3E"/>
<path d="M111.342 2.60068C103.677 2.60068 99.9374 13.7547 96.7764 27.7058C111.435 33.3464 106.827 77.9969 129.197 81.95H149.309C123.639 76.633 131.096 2.60068 111.342 2.60068Z" fill="#16255F"/>
<path d="M78.1103 81.9615C77.2419 81.7766 76.4314 81.5107 75.6672 81.1756C74.8914 81.5107 74.0925 81.7766 73.2588 81.9615H78.1103Z" fill="#D59C3B"/>
<path d="M96.7875 27.7058C95.7917 27.3244 94.7149 27.1163 93.5338 27.1163C78.7247 27.1163 79.2921 58.9832 68.7207 74.252C70.4459 77.3381 72.6459 79.8348 75.6795 81.164C88.7055 75.4888 92.0865 48.488 96.7875 27.7058Z" fill="#9C326F"/>
<path d="M68.7079 74.252C65.9522 78.2281 62.4554 81.0831 57.7197 81.95H73.2468C74.092 81.765 74.8909 81.4992 75.6551 81.164C72.6331 79.8347 70.4331 77.3497 68.7079 74.252Z" fill="#D59C3B"/>
<path d="M68.7079 74.252C65.9522 78.2281 62.4554 81.0831 57.7197 81.95H73.2468C74.092 81.765 74.8909 81.4992 75.6551 81.164C72.6331 79.8347 70.4331 77.3497 68.7079 74.252Z" fill="#5E2D69"/>
<path d="M96.7867 27.7058C91.8194 49.7132 88.3111 78.702 73.2588 81.95H129.207C106.837 77.9969 111.445 33.3579 96.7867 27.7058Z" fill="#16225D"/>
<path d="M96.7867 27.7058C91.8194 49.7132 88.3111 78.702 73.2588 81.95H129.207C106.837 77.9969 111.445 33.3579 96.7867 27.7058Z" fill="#5E2D69"/>
<path d="M39.1602 81.9615C66.0343 81.9615 58.6703 137.419 78.1688 137.419C97.6673 137.419 89.3075 81.9615 117.177 81.9615C116.02 81.9615 40.2717 81.9615 39.1602 81.9615Z" fill="#16255F"/>
<path d="M124.206 81.9499C147.85 81.9499 141.366 123.168 158.525 123.168C175.685 123.168 168.564 81.6378 193.088 81.6378C191.895 81.6263 125.352 81.9499 124.206 81.9499Z" fill="#16255F"/>
<path d="M145.21 41.0443C130.076 41.0443 134.592 78.309 116.355 81.95L173.936 81.7072C154.924 78.0779 160.343 41.0443 145.21 41.0443Z" fill="#DE9F3E"/>
<path d="M43.2011 212.804L34.7254 198.899H34.6676L26.0067 212.804H16.79L29.955 192.912L17.1721 173.309H27.1067L35.096 186.404H35.1539L43.421 173.309H52.4872L39.7506 192.126L53.0893 212.804H43.2011Z" fill="white"/>
<path d="M79.3731 205.141C79.3731 207.961 79.6047 212.087 79.7783 212.804H71.9164C71.6848 212.215 71.5111 210.654 71.4996 209.903C70.4227 211.567 68.408 213.486 63.1513 213.486C55.9841 213.486 52.9736 208.782 52.9736 204.193C52.9736 197.443 58.404 194.322 67.1112 194.322C68.5586 194.322 70.3533 194.322 71.349 194.322V192.507C71.349 190.404 70.5848 188.323 66.7754 188.323C63.3018 188.323 62.5492 189.791 62.1671 191.941H54.3515C54.7915 186.67 58.0567 182.405 67.0881 182.463C75.0426 182.509 79.3731 185.618 79.3731 192.669V205.141ZM71.349 199.304C70.6659 199.304 69.0796 199.304 68.0028 199.304C63.0471 199.304 61.2061 200.818 61.2061 203.673C61.2061 205.823 62.5261 207.626 65.4786 207.626C70.7006 207.626 71.349 203.996 71.349 200.078V199.304Z" fill="white"/>
<path d="M85.3714 191.201C85.3714 188.254 85.3598 185.642 85.3135 183.156H93.3838C93.488 183.827 93.6038 186.763 93.6038 188.358C94.9122 184.971 98.0848 182.498 103.133 182.463V190.3C97.1701 190.149 93.6038 191.744 93.6038 199.882V212.804H85.3829V191.201H85.3714Z" fill="white"/>
<path d="M106.548 191.201C106.548 188.254 106.537 185.642 106.49 183.156H114.561C114.665 183.827 114.781 186.763 114.781 188.358C116.089 184.971 119.262 182.498 124.31 182.463V190.3C118.347 190.149 114.781 191.744 114.781 199.882V212.804H106.56V191.201H106.548Z" fill="white"/>
<path d="M152.354 205.141C152.354 207.961 152.585 212.087 152.759 212.804H144.897C144.665 212.215 144.492 210.654 144.48 209.903C143.403 211.567 141.389 213.486 136.132 213.486C128.965 213.486 125.954 208.782 125.954 204.193C125.954 197.443 131.385 194.322 140.092 194.322C141.539 194.322 143.334 194.322 144.329 194.322V192.507C144.329 190.404 143.565 188.323 139.756 188.323C136.282 188.323 135.53 189.791 135.148 191.941H127.332C127.772 186.67 131.037 182.405 140.069 182.463C148.023 182.509 152.354 185.618 152.354 192.669V205.141ZM144.341 199.304C143.658 199.304 142.072 199.304 140.995 199.304C136.039 199.304 134.198 200.818 134.198 203.673C134.198 205.823 135.518 207.626 138.471 207.626C143.693 207.626 144.341 203.996 144.341 200.078V199.304Z" fill="white"/>
<path d="M163.782 183.156C166.85 193.386 169.525 202.517 170 205.256H170.058C170.695 202.263 172.443 195.628 175.986 183.156H184.172L174.191 213.659C171.355 222.19 168.981 224.732 161.848 224.732C161.119 224.732 159.417 224.675 157.993 224.513V217.913C158.549 217.971 159.452 218.028 160.123 218.028C163.145 218.028 164.662 216.977 165.774 213.706L154.971 183.145H163.782V183.156Z" fill="white"/>
<path d="M26.7013 252.889C27.5582 256.669 30.2792 258.333 34.6443 258.333C38.9979 258.333 40.8621 256.611 40.8621 253.86C40.8621 250.797 39.0442 249.468 32.5949 247.965C22.3246 245.561 19.7889 241.828 19.7889 236.753C19.7889 230.188 24.7098 225.726 33.637 225.726C43.6526 225.726 47.6472 231.101 48.1798 236.615H39.959C39.5653 234.291 38.28 231.783 33.417 231.783C30.1055 231.783 28.1139 233.147 28.1139 235.817C28.1139 238.441 29.7118 239.493 35.8138 240.914C46.7904 243.492 49.1872 247.572 49.1872 252.877C49.1872 259.755 43.9768 264.471 34.0075 264.471C24.4319 264.471 19.3836 259.766 18.4805 252.901H26.7013V252.889Z" fill="white"/>
<path d="M61.3679 261.431V274.758H53.5755V242.475C53.5755 240.186 53.5755 237.932 53.5176 235.655H61.1132C61.2174 236.407 61.3679 238.14 61.3679 239.181C62.5837 237.112 65.1079 235.008 69.6004 235.008C75.9571 235.008 80.878 240.313 80.878 249.086C80.878 259.061 75.3897 264.586 68.5236 264.586C64.5289 264.586 62.4448 263.084 61.3679 261.431ZM72.9235 249.387C72.9235 244.209 70.8277 241.284 67.0878 241.284C62.63 241.284 61.0553 244.139 61.0553 249.838C61.0553 255.235 62.5142 258.368 66.752 258.368C70.9088 258.368 72.9235 255.143 72.9235 249.387Z" fill="white"/>
<path d="M108.412 256.622C108.412 259.316 108.632 263.245 108.794 263.927H101.303C101.083 263.373 100.921 261.882 100.909 261.165C99.8787 262.748 97.9566 264.586 92.943 264.586C86.1116 264.586 83.2285 260.102 83.2285 255.721C83.2285 249.283 88.4042 246.312 96.7177 246.312C98.0956 246.312 99.8092 246.312 100.759 246.312V244.578C100.759 242.567 100.029 240.591 96.3935 240.591C93.082 240.591 92.3525 241.989 91.9936 244.047H84.5369C84.9653 239.019 88.08 234.962 96.683 235.008C104.267 235.054 108.401 238.013 108.401 244.74V256.622H108.412ZM100.77 251.063C100.11 251.063 98.605 251.063 97.5745 251.063C92.8504 251.063 91.102 252.508 91.102 255.224C91.102 257.27 92.3641 258.992 95.1777 258.992C100.157 258.992 100.77 255.536 100.77 251.803V251.063Z" fill="white"/>
<path d="M111.389 235.655H115.754V228.004H123.593V235.655H129.139V241.539H123.593V255.49C123.593 257.64 124.253 258.472 126.592 258.472C127.031 258.472 127.796 258.46 128.375 258.379V263.766C126.823 264.297 124.681 264.309 123.106 264.309C117.583 264.309 115.754 261.361 115.754 256.414V241.539H111.389V235.655Z" fill="white"/>
<path d="M132.636 224.062H140.475V231.043H132.636V224.062ZM132.636 235.655H140.475V263.927H132.636V235.655Z" fill="white"/>
<path d="M169.64 256.622C169.64 259.316 169.86 263.245 170.022 263.927H162.531C162.311 263.373 162.148 261.882 162.137 261.165C161.106 262.748 159.184 264.586 154.171 264.586C147.339 264.586 144.468 260.102 144.468 255.721C144.468 249.283 149.643 246.312 157.957 246.312C159.335 246.312 161.048 246.312 161.998 246.312V244.578C161.998 242.567 161.268 240.591 157.633 240.591C154.321 240.591 153.603 241.989 153.233 244.047H145.776C146.205 239.019 149.319 234.962 157.922 235.008C165.506 235.054 169.64 238.013 169.64 244.74V256.622ZM161.998 251.063C161.338 251.063 159.833 251.063 158.802 251.063C154.078 251.063 152.33 252.508 152.33 255.224C152.33 257.27 153.592 258.992 156.405 258.992C161.384 258.992 161.998 255.536 161.998 251.803V251.063Z" fill="white"/>
<path d="M175.359 263.927V224.05H183.198V263.927H175.359Z" fill="white"/>
</svg>
